<?xml version="1.0" standalone="no"?>
<!DOCTYPE svg PUBLIC "-//W3C//DTD SVG 20010904//EN"
 "http://www.w3.org/TR/2001/REC-SVG-20010904/DTD/svg10.dtd">
<svg version="1.0" xmlns="http://www.w3.org/2000/svg"
 width="185.000000pt" height="185.000000pt" viewBox="0 0 185.000000 185.000000"
 preserveAspectRatio="xMidYMid meet">
<metadata>
Created by potrace 1.16, written by Peter Selinger 2001-2019
</metadata>
<g transform="translate(0.000000,185.000000) scale(0.012847,-0.007227)"
fill="#000000" stroke="none">
<path d="M5600 21169 c-25 -4 -73 -8 -108 -8 -44 -1 -61 -4 -56 -12 9 -15 -14
-29 -48 -29 -14 0 -28 -4 -30 -10 -1 -5 -42 -20 -89 -34 -78 -23 -139 -32
-275 -41 -49 -3 -209 -30 -246 -41 -10 -3 -18 -9 -18 -14 0 -6 10 -6 25 0 15
6 26 6 30 -1 4 -5 10 -7 15 -4 5 3 11 2 14 -3 5 -8 81 -7 156 2 37 4 150 -22
150 -35 0 -4 9 -5 21 -2 12 3 25 0 29 -7 6 -10 12 -9 30 3 20 14 24 14 41 -1
19 -17 19 -17 -13 -25 -74 -19 -125 -23 -151 -12 -15 6 -25 14 -22 18 3 4 0 3
-7 -2 -7 -7 -19 -4 -36 9 -30 24 -57 25 -96 5 -15 -8 -36 -15 -45 -15 -9 0
-42 -7 -72 -14 -31 -8 -78 -16 -105 -17 -68 -2 -121 -16 -128 -34 -3 -8 -16
-15 -29 -15 -31 0 -77 -23 -106 -54 -23 -24 -23 -25 -2 -19 12 3 18 10 14 17
-4 6 0 5 9 -2 14 -11 18 -10 27 5 6 10 11 14 11 9 0 -4 11 -1 25 8 19 12 42
15 97 12 40 -2 74 -5 76 -6 1 -2 6 -3 11 -4 21 -3 21 -15 -1 -21 -13 -4 -34
-16 -47 -26 -13 -11 -38 -19 -55 -19 -17 0 -38 -4 -46 -10 -12 -8 -12 -10 3
-16 10 -3 32 -8 50 -9 18 -2 34 -4 37 -5 3 -1 20 -2 39 -3 19 -1 36 -7 38 -13
5 -14 -33 -24 -115 -30 -34 -3 -75 -10 -90 -16 -15 -6 -38 -13 -52 -15 -14 -2
-29 -8 -35 -14 -15 -14 -25 -11 -25 10 0 13 -10 21 -32 26 -18 4 -27 9 -20 12
7 3 17 16 23 30 5 13 13 22 17 19 5 -3 9 1 9 9 0 32 -36 10 -146 -91 -36 -33
-81 -66 -99 -74 -18 -7 -34 -15 -36 -19 -5 -8 73 -6 81 3 3 3 14 6 24 6 12 0
16 5 13 15 -4 8 -1 15 6 15 6 0 8 -4 5 -10 -3 -5 -1 -10 5 -10 6 0 8 -6 4 -12
-4 -7 -4 -10 1 -6 4 4 14 3 22 -3 10 -9 13 -7 13 9 0 25 12 34 34 26 14 -5 13
-9 -6 -29 -29 -29 -60 -34 -83 -15 -11 9 -16 10 -11 3 7 -13 -10 -18 -43 -13
-9 1 -12 -4 -8 -14 3 -8 2 -18 -3 -21 -4 -3 -11 1 -13 7 -3 7 -6 -2 -6 -19 -1
-18 -6 -33 -12 -33 -7 0 -9 -11 -6 -29 6 -26 2 -32 -34 -50 -22 -12 -45 -21
-51 -21 -12 0 -58 -50 -58 -63 0 -4 7 -10 15 -13 8 -4 15 -17 15 -30 0 -19 -5
-24 -24 -24 -13 0 -27 -7 -30 -16 -4 -11 -14 -15 -31 -12 -14 3 -23 1 -22 -6
1 -6 -11 -12 -28 -14 -60 -6 -105 -23 -116 -43 -9 -17 -6 -24 16 -45 14 -13
24 -28 21 -33 -4 -5 0 -12 6 -14 10 -4 10 -6 1 -6 -7 -1 -13 -8 -13 -16 0 -8
6 -15 13 -15 8 -1 7 -4 -3 -9 -24 -13 -131 -12 -124 2 4 7 -5 1 -20 -13 -15
-14 -30 -23 -33 -20 -3 3 -12 -5 -20 -17 -13 -19 -13 -23 6 -33 12 -6 29 -10
38 -8 9 2 18 -3 21 -11 3 -10 0 -12 -12 -8 -9 4 -16 3 -16 -1 0 -11 -63 -45
-85 -46 -11 -1 -20 -7 -20 -14 0 -14 -48 -52 -118 -94 -21 -13 -40 -34 -44
-48 -3 -14 -12 -34 -20 -46 -7 -11 -10 -23 -7 -27 4 -4 -5 -11 -20 -17 -15 -5
-29 -16 -32 -25 -3 -8 -11 -12 -17 -8 -5 3 -7 1 -3 -5 3 -6 2 -13 -4 -17 -6
-4 -8 -11 -5 -16 4 -5 -1 -9 -9 -9 -12 0 -16 -11 -17 -42 -1 -24 -4 -33 -6
-20 -2 12 -8 20 -13 17 -5 -3 -7 -12 -3 -20 3 -8 0 -15 -6 -15 -6 0 -11 -6
-11 -14 0 -8 -3 -16 -7 -18 -8 -3 -45 -76 -82 -160 -11 -25 -25 -49 -31 -53
-5 -3 -10 -15 -10 -25 0 -16 6 -19 29 -16 16 2 38 10 50 18 12 9 30 14 39 12
21 -5 32 3 61 44 12 17 31 32 42 32 10 0 19 7 19 15 0 8 4 15 9 15 5 0 25 16
44 35 44 44 85 52 117 23 13 -12 30 -23 37 -24 20 -3 25 13 6 20 -14 6 -14 8
3 21 22 17 38 19 29 5 -4 -6 6 -7 27 -4 38 8 62 24 34 24 -15 0 -16 3 -6 14 6
8 18 12 26 9 8 -3 14 0 14 5 0 6 -10 12 -22 14 -13 2 -22 9 -20 17 2 7 -4 21
-11 30 -18 21 -15 61 6 72 10 6 14 16 10 26 -5 13 -2 15 15 11 13 -4 22 -1 22
5 0 6 3 8 6 4 4 -3 15 4 25 16 10 12 18 18 19 14 0 -5 7 -1 16 7 8 9 24 16 35
16 10 0 19 4 19 8 0 5 25 21 56 36 45 22 53 30 44 41 -9 11 -7 15 14 21 14 3
26 10 26 14 0 4 25 20 55 34 30 15 57 31 60 36 3 5 21 17 40 26 19 9 32 20 29
25 -3 5 -1 9 4 9 4 0 16 16 25 35 16 34 34 46 142 98 35 17 56 22 71 16 13 -4
26 -3 33 4 9 9 14 8 21 -3 6 -10 1 -19 -18 -31 -15 -9 -58 -47 -96 -83 -38
-37 -71 -65 -74 -62 -3 3 -12 -2 -21 -12 -9 -10 -35 -27 -58 -38 -32 -14 -41
-23 -37 -36 3 -12 0 -18 -10 -18 -20 0 -86 -64 -86 -84 0 -9 -8 -16 -20 -16
-11 0 -23 -7 -26 -15 -4 -8 -14 -15 -24 -15 -10 0 -23 -7 -30 -15 -7 -8 -17
-15 -23 -15 -11 0 -50 -40 -74 -76 -15 -23 -15 -24 12 -24 27 0 27 -1 12 -18
-10 -10 -15 -21 -12 -23 2 -3 -11 -13 -30 -23 -28 -15 -34 -23 -29 -41 4 -15
0 -24 -9 -28 -10 -4 -13 -13 -10 -27 4 -13 -2 -32 -16 -50 -11 -16 -18 -36
-15 -44 4 -11 0 -16 -10 -16 -9 0 -16 -7 -16 -15 0 -18 -11 -19 -29 -2 -11 10
-12 7 -7 -15 4 -17 2 -28 -4 -28 -5 0 -10 8 -11 18 0 11 -2 12 -6 4 -3 -7 -16
-18 -30 -23 -21 -8 -23 -12 -13 -24 10 -12 10 -18 0 -30 -8 -9 -8 -15 -2 -15
6 0 12 5 14 11 2 6 14 8 32 3 l28 -7 -25 -21 c-14 -11 -34 -28 -44 -37 -10 -8
-27 -18 -36 -22 -9 -3 -18 -13 -18 -22 -1 -8 -2 -18 -3 -22 -2 -15 -50 -88
-61 -95 -21 -13 -10 -53 14 -56 16 -3 21 -8 17 -19 -4 -11 -2 -13 9 -9 8 3 15
1 15 -3 0 -5 8 -7 18 -5 9 2 24 0 32 -6 13 -8 12 -13 -7 -32 -13 -12 -23 -17
-23 -11 0 7 -11 10 -27 9 -16 -2 -34 -4 -41 -5 -8 -1 -12 -12 -10 -28 2 -19
-1 -27 -10 -25 -8 1 -23 -9 -34 -23 -11 -14 -24 -25 -30 -25 -6 0 -17 -8 -24
-17 -8 -11 -13 -13 -14 -5 0 10 -4 10 -22 0 -13 -7 -26 -17 -30 -23 -5 -6 -12
-4 -18 5 -6 10 -10 11 -10 3 0 -7 -9 -13 -20 -13 -12 0 -20 7 -20 16 0 9 -6
14 -12 12 -7 -3 -17 4 -23 15 -14 28 -46 46 -52 30 -4 -10 -11 -9 -34 2 -16 9
-29 20 -29 25 0 6 -8 10 -17 10 -10 0 -14 4 -8 8 17 12 16 32 -2 32 -15 0 -14
2 3 15 16 12 17 14 2 15 -10 0 -15 6 -12 18 2 9 0 31 -5 47 -5 17 -10 22 -10
12 -1 -10 -5 -15 -11 -12 -9 6 -14 -10 -13 -42 1 -7 -3 -10 -8 -7 -5 3 -9 -6
-9 -20 0 -14 -5 -26 -11 -26 -5 0 -7 6 -4 13 4 6 -5 -1 -20 -18 -29 -33 -75
-121 -75 -142 0 -8 -4 -11 -10 -8 -6 3 -10 -4 -10 -17 0 -13 -7 -33 -15 -44
-8 -12 -11 -25 -7 -29 4 -3 0 -12 -10 -19 -27 -20 -67 -101 -61 -124 4 -16 1
-22 -11 -22 -19 0 -35 32 -18 38 6 2 9 9 6 17 -3 7 4 23 15 34 25 25 30 71 6
51 -8 -7 -15 -18 -15 -25 0 -7 -6 -18 -14 -24 -8 -6 -17 -33 -21 -59 -4 -26
-11 -51 -15 -57 -11 -14 -32 -96 -26 -102 2 -3 14 18 27 46 20 49 28 55 56 52
7 -1 22 3 32 9 16 8 20 7 19 -7 -1 -10 2 -28 6 -39 5 -18 1 -24 -23 -32 -16
-6 -38 -23 -48 -39 -10 -15 -26 -37 -35 -47 -10 -10 -15 -23 -12 -27 2 -4 0
-10 -6 -14 -5 -3 -10 -16 -10 -28 0 -12 -7 -35 -15 -51 -8 -15 -15 -33 -15
-40 0 -6 -7 -24 -15 -40 -16 -31 -43 -185 -43 -249 0 -34 3 -38 20 -34 15 4
18 2 13 -11 -4 -9 -9 -32 -12 -51 l-6 -34 35 6 c32 5 35 3 30 -15 -3 -14 -1
-19 6 -14 16 10 14 -5 -3 -28 -12 -16 -12 -22 -2 -28 9 -6 7 -8 -5 -8 -10 0
-15 -6 -12 -18 3 -10 -7 -29 -24 -47 -38 -40 -52 -67 -52 -104 0 -17 -4 -31
-10 -31 -5 0 -10 -5 -10 -11 0 -5 5 -7 10 -4 6 3 10 1 10 -5 0 -6 5 -8 10 -5
20 12 9 -16 -15 -40 -13 -14 -21 -25 -18 -25 3 0 0 -7 -7 -15 -10 -12 -10 -19
-2 -27 7 -7 12 -17 12 -23 0 -22 -36 -53 -65 -57 -26 -3 -30 -9 -47 -68 -23
-83 -23 -111 2 -133 11 -9 20 -14 20 -10 0 4 7 -2 15 -14 9 -12 21 -20 29 -17
7 3 24 -7 38 -21 l26 -26 -29 -30 c-15 -16 -33 -29 -39 -29 -5 0 -10 -5 -10
-11 0 -5 -8 -9 -18 -7 -24 4 -26 -1 -13 -34 6 -16 17 -28 25 -28 8 0 26 -15
40 -32 15 -18 31 -38 36 -45 14 -17 4 -37 -31 -57 -23 -14 -42 -16 -82 -12
-51 6 -51 6 -22 -8 17 -8 24 -15 18 -15 -7 -1 -13 -5 -13 -11 0 -14 57 -13 62
1 2 6 16 12 32 12 19 0 26 4 22 13 -7 17 -2 17 49 2 22 -6 46 -10 54 -9 8 1
17 -1 20 -6 8 -10 156 -64 201 -72 24 -4 31 -9 22 -15 -8 -5 -51 -1 -100 9
-110 21 -148 12 -138 -35 6 -32 115 -185 148 -208 10 -7 16 -18 13 -23 -4 -5
1 -9 10 -9 8 0 18 -8 21 -17 8 -25 61 -149 84 -198 15 -30 18 -33 14 -12 -8
35 -2 34 43 -6 59 -52 195 -127 266 -147 21 -6 41 -19 44 -28 4 -9 11 -20 16
-24 15 -9 10 -65 -7 -90 -21 -30 -20 -45 4 -75 11 -14 17 -29 14 -34 -3 -5 -1
-24 4 -42 6 -17 18 -59 27 -92 9 -33 21 -74 26 -91 5 -17 9 -49 9 -72 0 -23 4
-42 9 -42 5 0 11 -24 15 -52 10 -82 15 -328 6 -333 -9 -6 12 -71 28 -87 7 -7
12 -17 12 -24 0 -6 8 -22 18 -35 23 -31 49 -102 58 -159 4 -25 17 -64 29 -87
14 -26 25 -70 30 -117 4 -43 11 -74 16 -70 5 3 7 10 4 15 -4 5 2 9 11 9 16 0
16 1 -2 15 -14 11 -15 14 -4 15 13 0 13 2 1 9 -11 7 -12 13 -3 23 9 11 9 17 0
26 -9 9 -9 12 0 12 20 0 14 17 -8 23 -11 3 -20 13 -20 22 0 12 5 15 16 11 23
-9 37 3 24 19 -11 13 2 51 23 66 10 7 0 64 -15 93 -7 11 -12 40 -14 62 -1 23
-5 47 -9 53 -4 7 -7 101 -7 209 0 118 -5 243 -14 312 -13 99 -21 166 -26 230
-1 8 -7 20 -14 25 -6 6 -17 27 -24 47 -9 31 -9 41 4 60 20 29 20 47 -1 70 -14
16 -15 24 -5 50 6 17 9 35 6 40 -3 5 0 15 6 23 7 8 9 15 5 15 -4 0 -2 6 4 13
6 8 7 17 3 21 -21 22 -2 126 24 126 17 0 27 -17 15 -25 -14 -8 -2 -35 16 -35
8 0 12 -4 9 -9 -3 -5 2 -15 12 -22 9 -7 14 -9 10 -5 -4 5 -4 14 1 20 5 6 3 32
-6 61 -24 84 -29 118 -26 165 2 25 4 59 4 75 0 17 3 24 6 18 7 -19 23 -16 23
4 0 15 1 15 13 -1 12 -17 14 -17 20 -2 3 9 0 21 -7 28 -19 18 26 98 95 170 55
57 116 88 176 88 21 0 42 -34 29 -47 -3 -3 -1 -14 4 -23 7 -14 2 -27 -20 -55
-17 -21 -30 -42 -30 -46 0 -5 -6 -9 -13 -9 -30 0 -61 -195 -32 -206 8 -3 12
-11 8 -16 -4 -7 6 -9 28 -5 80 15 176 10 250 -13 40 -13 80 -29 87 -37 23 -23
42 -15 89 37 25 28 49 50 53 50 5 0 21 11 35 24 51 48 122 61 320 61 181 0
224 -5 367 -46 37 -11 87 -22 113 -26 29 -4 54 -14 68 -29 12 -13 29 -24 37
-24 9 0 11 -3 5 -8 -6 -4 -16 -19 -22 -34 -12 -26 -27 -33 -60 -29 -7 1 -13
-5 -13 -14 0 -8 -6 -15 -14 -15 -7 0 -19 -7 -26 -15 -7 -8 -21 -15 -31 -15 -9
0 -24 -7 -33 -15 -8 -8 -19 -15 -24 -15 -5 0 -15 -6 -21 -14 -11 -13 -40 -16
-284 -30 -54 -3 -102 -8 -107 -11 -5 -3 -68 -6 -140 -7 -71 0 -130 -4 -130 -9
0 -4 -10 -11 -22 -14 -20 -6 -125 -71 -138 -85 -3 -3 -26 -18 -52 -33 -46 -27
-76 -62 -63 -75 3 -3 -9 -14 -27 -24 l-33 -17 28 -1 c15 0 27 5 27 11 0 5 4 8
9 5 4 -3 18 5 30 18 14 15 47 29 99 41 68 15 88 16 150 5 40 -6 74 -16 77 -21
10 -16 97 -49 130 -49 17 0 67 9 111 20 140 36 444 36 538 1 23 -9 26 -14 17
-25 -10 -11 -8 -16 5 -24 15 -8 14 -12 -12 -28 -16 -10 -37 -29 -47 -41 -10
-13 -27 -23 -38 -23 -11 0 -50 -13 -87 -29 -77 -32 -168 -45 -347 -46 -146 -2
-148 -2 -143 -17 6 -16 92 -36 117 -26 12 4 104 10 204 12 230 6 284 11 302
26 8 7 15 10 15 6 0 -4 10 0 23 8 12 8 38 18 57 22 44 10 37 8 87 22 51 15
158 71 233 123 30 20 84 52 120 71 81 41 76 38 64 46 -24 16 -50 81 -33 83 14
2 22 5 52 17 16 7 33 12 38 12 9 0 7 17 -8 56 -2 5 5 19 17 29 24 21 27 40 5
31 -9 -3 -49 -3 -90 1 -61 5 -73 8 -64 19 6 8 16 11 22 7 5 -3 15 0 21 8 6 8
22 15 36 17 91 9 127 14 140 19 28 10 135 2 150 -12 8 -7 32 -16 52 -20 20 -4
39 -13 42 -20 6 -17 -10 -134 -24 -170 -12 -31 -18 -80 -24 -188 -4 -71 -8
-83 -38 -120 -39 -50 -111 -123 -153 -155 -67 -52 -232 -121 -325 -137 -19 -3
-60 -12 -90 -21 -30 -8 -95 -23 -145 -34 -49 -11 -117 -27 -150 -34 -33 -7
-100 -19 -150 -26 -49 -6 -101 -14 -115 -17 -14 -2 -137 -7 -273 -10 -196 -4
-275 -1 -380 12 -72 9 -139 21 -149 26 -9 5 -32 11 -51 13 -18 3 -58 16 -87
29 -30 14 -62 23 -72 22 -10 -2 -16 0 -13 5 3 5 1 11 -4 14 -5 4 -12 2 -16 -4
-3 -5 8 -22 26 -37 17 -16 42 -38 56 -51 13 -12 32 -24 41 -26 17 -3 23 -5 97
-33 41 -16 114 -29 219 -40 32 -3 54 -8 48 -12 -20 -12 621 -5 698 8 41 8 113
19 160 26 137 22 218 41 234 57 8 9 37 19 63 23 26 4 88 26 138 49 49 24 107
46 129 49 112 18 244 117 335 252 26 39 66 95 89 125 23 30 56 82 73 115 18
33 58 99 91 147 32 49 58 91 58 95 0 5 18 35 40 68 22 33 40 65 40 71 0 6 8
18 18 27 10 9 28 36 40 59 24 48 48 72 77 76 11 1 35 5 53 8 55 9 113 -45 128
-121 2 -11 8 -21 14 -23 5 -2 12 -19 16 -38 3 -19 10 -34 14 -34 5 0 12 -9 15
-20 4 -11 18 -33 31 -50 14 -16 37 -51 50 -76 14 -26 43 -65 66 -85 22 -21 37
-43 33 -49 -3 -5 -1 -10 6 -10 7 0 10 -3 6 -6 -6 -6 1 -17 36 -55 9 -10 17
-23 17 -29 0 -5 5 -10 11 -10 5 0 8 -4 4 -9 -3 -5 -1 -13 5 -16 6 -4 7 -12 3
-18 -5 -7 -10 -34 -11 -62 -2 -39 0 -46 8 -32 6 9 16 17 23 17 8 0 6 -4 -3
-11 -11 -8 -12 -12 -2 -16 6 -2 10 -9 6 -14 -3 -5 0 -9 6 -9 6 0 8 -5 4 -11
-5 -8 2 -10 23 -7 25 3 32 0 42 -24 7 -15 10 -32 6 -37 -3 -6 1 -24 10 -41 18
-34 8 -60 -22 -60 -10 0 -13 -6 -9 -15 3 -9 -1 -18 -9 -21 -8 -4 -12 -11 -8
-18 3 -6 3 -8 -2 -4 -4 4 -16 3 -26 -2 -14 -8 -17 -18 -12 -43 3 -17 5 -46 5
-64 0 -24 3 -30 14 -26 8 3 14 0 14 -6 0 -6 -5 -11 -12 -11 -6 0 -9 -3 -5 -6
3 -3 2 -16 -3 -28 -5 -14 -3 -34 6 -54 7 -18 13 -52 13 -75 0 -58 10 -127 23
-159 5 -16 8 -37 5 -48 -3 -12 4 -30 18 -46 43 -50 40 -109 -10 -189 -13 -22
-32 -53 -41 -70 -29 -50 -94 -135 -104 -135 -6 0 -10 -6 -10 -13 0 -8 -13 -26
-30 -40 -16 -15 -30 -32 -30 -37 0 -6 -7 -10 -15 -10 -8 0 -15 -9 -15 -20 0
-11 -6 -20 -14 -20 -13 0 -31 -35 -39 -75 -2 -11 -9 -19 -16 -17 -6 1 -19 -4
-27 -13 -13 -13 -11 -16 18 -29 25 -10 29 -15 17 -20 -21 -9 -95 17 -91 33 1
7 -2 10 -7 7 -5 -4 -16 0 -24 8 -8 8 -33 20 -56 26 -24 6 -59 20 -79 30 -62
32 -177 53 -251 46 -98 -9 -116 -12 -131 -21 -7 -5 -11 -4 -7 1 6 10 -96 9
-113 -1 -7 -4 -17 -2 -23 4 -6 6 -25 11 -42 11 -24 0 -35 6 -43 25 -7 14 -20
25 -31 25 -11 0 -36 8 -55 17 -33 15 -37 15 -54 0 -10 -9 -22 -14 -25 -11 -4
4 -12 2 -20 -4 -9 -8 -34 -8 -85 -1 -64 9 -76 8 -100 -8 -15 -10 -48 -28 -73
-41 -29 -15 -54 -36 -65 -58 -14 -25 -25 -34 -45 -34 -14 0 -29 3 -33 8 -4 4
-11 8 -14 8 -38 8 -52 19 -52 40 0 15 -6 24 -15 24 -14 0 -13 35 2 80 3 8 7
32 9 53 3 21 13 53 24 72 10 18 16 36 13 39 -3 3 2 8 11 12 9 3 16 10 16 16 0
5 14 21 30 35 17 13 30 31 30 39 0 8 4 14 9 14 5 0 13 10 17 23 3 12 19 50 35
84 16 34 29 66 29 71 0 5 6 22 14 38 21 43 27 87 15 104 -7 10 -12 11 -15 4
-3 -7 -13 -10 -23 -7 -9 2 -23 -3 -30 -11 -8 -9 -18 -16 -23 -16 -15 0 -79
-50 -126 -98 -23 -24 -46 -41 -50 -38 -5 3 -17 -9 -27 -27 -10 -18 -36 -48
-57 -68 -21 -20 -38 -39 -38 -43 0 -4 -9 -17 -20 -29 -64 -71 -110 -129 -110
-138 0 -6 -7 -17 -15 -26 -8 -8 -13 -19 -10 -24 4 -5 1 -9 -5 -9 -6 0 -14 -8
-17 -17 -4 -10 -20 -28 -35 -41 -15 -13 -28 -30 -28 -38 0 -8 -9 -22 -19 -31
-11 -9 -18 -20 -15 -25 3 -4 -8 -27 -24 -50 -16 -24 -39 -62 -51 -85 -19 -39
-20 -43 -4 -52 15 -8 13 -12 -15 -36 -17 -14 -31 -29 -30 -33 1 -4 -8 -29 -20
-55 -12 -27 -25 -61 -28 -75 -3 -15 -15 -52 -25 -83 -23 -66 -24 -124 -4 -163
8 -15 15 -44 15 -62 0 -19 4 -34 8 -34 10 0 9 -36 0 -46 -4 -3 -2 -18 3 -32 5
-14 8 -38 5 -53 -2 -16 1 -30 7 -32 9 -3 8 -8 -1 -20 -27 -33 0 -147 35 -147
5 0 10 -17 11 -37 5 -65 8 -77 30 -112 15 -26 18 -39 11 -53 -6 -12 -6 -18 0
-18 15 0 23 -57 25 -169 1 -98 1 -100 -26 -115 -25 -16 -27 -15 -34 6 -4 13
-14 28 -23 35 -14 11 -13 13 9 14 21 1 22 2 5 6 -11 3 -28 12 -38 21 -9 8 -20
12 -24 9 -3 -4 -12 -2 -20 4 -7 6 -22 9 -33 6 -12 -3 -20 0 -20 7 0 6 -21 18
-47 26 -27 7 -55 21 -63 31 -8 9 -23 27 -33 39 -13 15 -27 20 -47 18 -18 -2
-38 5 -51 16 -18 15 -23 15 -30 5 -6 -9 -8 -4 -6 15 1 21 -3 29 -17 32 -10 1
-27 12 -37 23 -23 24 -35 26 -42 9 -3 -7 -6 -3 -6 9 -1 13 -10 24 -22 28 -12
4 -19 13 -17 23 2 10 -5 26 -17 37 -11 11 -20 27 -20 35 1 17 -35 59 -50 60
-5 1 -19 12 -30 26 -37 48 -70 75 -107 91 -21 8 -38 22 -38 29 0 8 -11 20 -25
26 -14 6 -28 22 -31 34 -3 12 -19 34 -36 49 -25 23 -35 26 -69 20 -21 -4 -42
-12 -46 -18 -10 -16 -11 -47 -3 -52 12 -7 1 -69 -14 -80 -22 -16 2 -120 31
-138 7 -4 13 -15 13 -23 0 -8 5 -12 10 -9 6 3 10 2 10 -4 0 -5 3 -18 6 -28 4
-11 3 -14 -3 -7 -5 7 -9 -14 -10 -52 -2 -51 0 -64 12 -64 8 0 15 -4 15 -8 0
-14 36 -52 43 -46 3 4 4 -7 3 -22 -2 -16 3 -49 10 -74 15 -50 12 -59 -13 -39
-15 13 -16 12 -9 -6 4 -11 11 -41 15 -66 4 -25 17 -57 29 -70 12 -13 21 -28
19 -34 -3 -5 6 -40 19 -76 13 -37 24 -79 24 -94 0 -16 11 -38 28 -55 46 -46
98 -113 121 -155 28 -53 105 -165 130 -190 10 -11 30 -42 44 -70 14 -27 37
-61 51 -75 40 -37 126 -176 126 -203 0 -13 13 -36 30 -52 16 -16 30 -39 30
-51 0 -13 18 -57 40 -98 22 -41 40 -83 40 -93 0 -24 75 -103 98 -103 13 0 17
-9 18 -35 0 -23 9 -42 25 -58 13 -13 30 -32 37 -43 7 -10 16 -24 20 -29 4 -6
23 -22 42 -35 47 -31 60 -49 60 -82 0 -33 12 -56 60 -118 19 -25 45 -65 58
-90 27 -54 52 -83 113 -132 51 -42 64 -46 77 -21 9 15 12 15 45 0 19 -9 40
-17 45 -17 6 0 30 -22 54 -48 33 -37 53 -51 83 -56 22 -4 62 -14 88 -22 26 -9
59 -13 72 -10 35 9 114 -15 146 -45 15 -14 54 -40 88 -57 33 -18 63 -37 66
-42 3 -5 30 -14 61 -21 33 -7 59 -20 64 -30 6 -10 24 -20 42 -24 18 -4 65 -18
105 -31 86 -29 193 -46 210 -32 7 6 39 0 90 -16 43 -13 123 -29 178 -35 100
-11 142 -17 180 -26 11 -2 52 -5 90 -6 39 -1 108 -10 155 -21 47 -11 96 -22
109 -24 17 -4 21 -8 13 -16 -13 -13 -4 -38 13 -38 9 0 12 -8 10 -21 -6 -30 33
-98 60 -105 13 -3 26 -12 29 -20 3 -8 15 -14 26 -14 12 0 20 -7 20 -17 1 -13
8 -9 30 17 21 23 30 29 30 18 0 -10 8 -21 17 -27 9 -5 17 -21 18 -37 0 -15 6
-29 14 -32 10 -3 11 2 6 18 -6 19 -4 22 12 18 13 -3 22 2 30 18 9 20 7 23 -21
30 l-31 8 32 3 c31 4 32 5 18 27 -14 21 -13 24 23 57 66 62 101 82 133 75 15
-3 31 -1 34 4 3 6 11 10 16 10 6 0 7 -5 3 -11 -5 -8 1 -10 19 -5 14 3 45 8 69
11 24 3 80 12 126 21 71 13 120 16 264 14 18 -1 25 -5 22 -14 -4 -9 4 -13 28
-12 18 1 35 4 38 8 10 13 59 -4 53 -18 -4 -10 3 -14 23 -14 23 0 26 -2 14 -10
-8 -5 -10 -10 -4 -10 20 0 95 -72 90 -86 -3 -8 -1 -14 5 -14 6 0 7 -4 4 -10
-3 -5 -2 -10 4 -10 17 0 28 -53 19 -94 -6 -25 -5 -43 2 -50 13 -13 13 -63 1
-71 -6 -3 -10 -13 -10 -23 0 -9 -1 -32 -1 -50 -1 -17 -6 -32 -12 -32 -6 0 -6
-6 2 -15 7 -9 8 -15 2 -15 -5 0 -13 -7 -16 -16 -3 -8 -2 -12 4 -9 6 3 10 -1
10 -9 0 -8 -4 -17 -9 -20 -5 -4 -8 -22 -7 -41 2 -20 -1 -38 -6 -41 -5 -3 -7
-12 -4 -20 3 -8 -2 -33 -10 -55 -9 -22 -14 -52 -11 -68 3 -15 1 -33 -6 -40 -8
-8 -8 -14 1 -23 14 -14 16 -42 3 -33 -5 3 -12 1 -15 -4 -4 -5 -3 -12 1 -14 5
-3 7 -35 6 -71 0 -36 2 -66 7 -66 12 0 21 -79 11 -99 -6 -10 -24 -33 -40 -50
-17 -18 -31 -37 -31 -42 0 -5 -5 -9 -10 -9 -6 0 -43 -33 -83 -72 -86 -87 -210
-172 -332 -228 -92 -42 -187 -67 -179 -46 2 6 -11 12 -33 14 -44 3 -79 24 -88
51 -4 12 -12 18 -21 14 -7 -3 -14 0 -14 6 0 6 -7 11 -15 11 -8 0 -15 7 -15 15
0 9 -9 15 -25 15 -14 0 -40 8 -58 18 -35 18 -127 107 -127 122 0 5 -11 12 -25
16 -14 3 -22 10 -19 15 3 5 0 9 -5 9 -6 0 -11 -7 -11 -15 0 -13 -3 -14 -15 -3
-31 26 -65 63 -65 71 0 12 -27 37 -39 37 -6 0 -11 5 -11 10 0 6 -8 10 -18 10
-11 0 -27 9 -37 20 -10 11 -21 18 -25 15 -4 -2 -13 6 -20 20 -8 15 -18 21 -28
18 -10 -4 -13 -2 -8 5 10 16 -11 25 -31 13 -13 -7 -14 -10 -4 -11 8 0 12 -3 8
-6 -3 -3 -11 -3 -17 1 -8 5 -8 10 0 20 9 11 6 13 -17 9 -15 -2 -34 -7 -41 -9
-13 -5 -83 28 -83 39 2 18 -2 23 -30 33 -17 7 -37 9 -45 6 -17 -6 -65 15 -77
34 -12 20 -27 16 -54 -13 -19 -21 -22 -29 -11 -35 9 -6 6 -8 -10 -6 -15 1 -20
6 -17 17 3 10 0 17 -8 17 -9 0 -12 -9 -9 -25 3 -15 1 -23 -5 -19 -6 4 -8 -3
-6 -17 4 -20 0 -25 -18 -28 -13 -2 -24 -10 -24 -18 0 -8 -9 -16 -20 -19 -11
-2 -27 -11 -35 -20 -8 -9 -32 -24 -52 -35 -22 -11 -34 -24 -31 -31 3 -10 -3
-12 -24 -9 -15 2 -53 6 -83 9 -100 8 -150 17 -150 25 0 5 -8 9 -17 9 -24 0
-74 11 -98 21 -11 5 -38 14 -60 20 -22 7 -44 17 -50 24 -5 6 -27 19 -47 28
-21 10 -38 22 -38 28 0 5 -9 10 -19 10 -26 0 -181 78 -181 90 0 6 -4 10 -10
10 -5 0 -67 32 -137 72 -70 39 -150 83 -178 96 -151 76 -465 275 -574 364 -68
56 -217 217 -281 302 -85 117 -161 300 -196 474 -15 80 -15 130 0 310 3 32 1
50 -5 46 -14 -8 -129 -251 -129 -272 0 -9 -9 -28 -20 -42 -11 -14 -20 -30 -20
-37 0 -6 -9 -14 -19 -18 -11 -3 -21 -16 -23 -27 -2 -12 -10 -23 -18 -25 -12
-4 -13 -3 -1 5 11 8 9 11 -8 17 -12 3 -19 11 -15 16 9 15 -67 -19 -89 -39 -17
-16 -85 -58 -132 -82 -11 -6 -32 -18 -46 -28 -14 -9 -46 -30 -70 -46 -24 -16
-46 -32 -49 -35 -16 -19 -72 -51 -90 -51 -11 0 -20 -4 -20 -10 0 -5 -7 -10
-16 -10 -8 0 -30 -11 -47 -24 -18 -13 -52 -27 -76 -31 -29 -5 -39 -10 -30 -16
19 -11 -13 -23 -42 -16 -12 3 -31 0 -43 -7 -11 -7 -52 -21 -91 -31 -38 -10
-75 -21 -80 -26 -6 -4 -37 -17 -70 -30 -94 -34 -145 -59 -145 -69 0 -6 -13
-10 -29 -10 -17 0 -33 -4 -36 -10 -3 -5 -24 -14 -46 -20 -22 -6 -37 -15 -34
-20 4 -6 -1 -10 -10 -10 -31 0 -269 -102 -280 -120 -3 -6 -15 -10 -26 -10 -10
0 -36 -9 -56 -20 -21 -11 -44 -20 -51 -20 -7 0 -11 -4 -7 -9 8 -14 -30 -32
-52 -25 -15 5 -15 4 -3 -5 12 -9 9 -11 -16 -11 -16 0 -61 -16 -100 -35 -38
-19 -75 -35 -81 -35 -7 0 -13 -6 -13 -13 0 -13 -26 -25 -97 -47 -23 -7 -40
-17 -37 -21 3 -5 -4 -9 -15 -9 -37 0 -69 -21 -64 -41 4 -13 0 -19 -10 -19 -8
0 -24 -3 -34 -7 -16 -6 -17 -5 -3 13 14 18 14 18 -5 3 -11 -9 -31 -20 -45 -24
-14 -4 -31 -12 -39 -18 -7 -6 -18 -12 -25 -13 -25 -4 -166 -81 -159 -87 3 -4
-4 -7 -17 -7 -13 0 -31 -6 -39 -13 -9 -7 -46 -26 -83 -41 -37 -16 -65 -32 -62
-37 3 -5 2 -9 -3 -10 -4 0 -19 -2 -32 -3 -14 -2 -27 -8 -29 -14 -2 -7 -10 -12
-18 -12 -7 0 -58 -21 -111 -47 -54 -25 -107 -50 -118 -54 -155 -63 -203 -81
-278 -108 -48 -18 -120 -39 -160 -46 l-72 -14 68 2 c45 2 62 0 51 -6 -9 -5
-67 -11 -128 -13 -164 -4 -250 -28 -596 -161 l-75 -29 -3 -4192 -2 -4192 3159
0 c2519 0 3160 3 3164 13 2 6 0 25 -4 42 -5 16 -7 37 -4 46 7 21 70 89 83 89
9 0 20 -66 24 -152 l2 -38 163 0 c158 0 163 1 163 21 0 11 5 29 11 41 8 14 7
28 -2 49 -15 38 -9 43 28 24 45 -22 57 -40 40 -57 -8 -8 -18 -29 -22 -46 l-7
-32 136 0 c153 0 155 1 137 81 -13 56 -44 84 -74 67 -12 -6 -27 -18 -33 -27
-10 -13 -14 -9 -29 24 -9 22 -17 54 -18 72 -2 18 -12 42 -24 55 -11 13 -28 37
-36 54 -23 44 -99 111 -144 124 -33 10 -46 9 -95 -10 -32 -12 -58 -26 -58 -31
0 -5 -4 -9 -10 -9 -15 0 -12 30 5 47 9 9 13 23 10 34 -5 16 -3 18 15 11 12 -4
56 -5 98 0 47 4 78 3 80 -3 5 -14 19 -11 26 6 4 12 -7 21 -39 35 -46 20 -67
44 -87 100 -14 42 -38 70 -38 45 0 -8 -16 -29 -35 -46 -27 -24 -35 -39 -35
-64 0 -19 -4 -36 -9 -40 -12 -7 -61 38 -61 56 0 30 -32 57 -113 98 -55 28 -94
55 -113 79 -16 20 -46 55 -66 78 -21 23 -38 44 -38 48 0 3 -16 28 -35 55 -24
34 -35 59 -35 84 0 25 -7 41 -23 54 -25 20 -35 74 -19 107 22 47 29 67 31 98
1 12 14 18 54 23 45 6 58 3 100 -20 26 -15 52 -35 57 -45 5 -10 20 -20 32 -23
13 -4 32 -21 42 -39 11 -18 30 -44 43 -57 26 -27 29 -48 9 -77 -19 -27 -3 -47
53 -65 35 -11 48 -23 68 -59 34 -61 58 -85 88 -88 14 -1 24 2 23 6 0 4 2 15 6
24 6 13 -1 28 -23 53 -17 20 -31 43 -31 53 0 9 -9 28 -20 42 -11 14 -20 30
-20 35 0 15 -73 85 -88 85 -15 0 -16 92 -1 107 7 7 1 12 -24 17 -38 7 -75 40
-58 51 18 11 12 41 -14 69 l-26 28 66 69 c36 38 65 76 65 85 0 30 33 79 97
141 35 35 67 63 71 63 4 0 15 13 25 29 10 17 34 35 63 46 41 15 56 16 132 6
48 -7 119 -16 158 -21 77 -9 144 -32 144 -49 0 -7 -39 -10 -111 -8 -109 2
-111 2 -132 -25 -12 -15 -44 -37 -72 -49 -27 -12 -62 -30 -77 -41 l-28 -19 36
-52 c33 -48 138 -146 157 -147 20 0 67 -43 67 -60 0 -13 9 -22 28 -26 119 -26
192 -60 192 -88 0 -8 7 -20 16 -27 15 -12 18 -11 28 5 6 10 35 50 63 90 29 39
57 87 63 106 10 38 36 80 57 93 7 4 16 25 19 47 5 28 12 40 27 44 36 9 83 -50
78 -100 -2 -20 33 -44 64 -44 8 0 15 -4 15 -9 0 -5 6 -16 13 -23 32 -34 65
-86 76 -121 12 -35 11 -40 -14 -72 -21 -28 -33 -35 -60 -35 -29 0 -34 -4 -40
-28 -6 -30 -57 -92 -74 -92 -6 0 -26 14 -46 31 -26 23 -35 39 -35 63 l-1 31
-20 -25 c-39 -50 -69 -80 -69 -71 0 5 -15 13 -32 16 -18 4 -48 16 -65 27 l-33
20 0 -25 c0 -31 57 -84 73 -68 13 13 57 14 57 2 0 -5 -4 -11 -10 -13 -5 -2
-17 -29 -25 -62 -18 -70 -22 -76 -41 -76 -26 0 -44 -25 -36 -52 6 -22 11 -24
37 -17 17 5 49 23 70 41 22 18 57 41 78 51 28 13 43 28 57 61 27 64 46 66 130
12 39 -25 74 -46 79 -46 5 0 11 -8 13 -18 5 -18 -25 -50 -119 -126 -29 -25
-35 -26 -79 -16 -53 12 -74 8 -74 -15 0 -9 -9 -28 -20 -43 -16 -22 -20 -45
-21 -124 -1 -67 3 -103 11 -113 14 -17 14 -17 -15 -34 -17 -10 -14 -10 18 -5
24 4 37 2 37 -5 0 -13 49 -15 68 -2 12 7 11 14 -2 39 -20 39 -20 56 -1 48 9
-3 37 4 62 16 l46 22 64 -34 c95 -49 97 -51 67 -110 -14 -28 -29 -50 -35 -50
-5 0 -9 -11 -9 -25 0 -14 -3 -24 -7 -23 -5 0 -15 -2 -23 -5 -36 -16 -114 -36
-122 -31 -7 5 -12 -9 -10 -27 2 -13 -47 -27 -146 -43 -86 -13 -108 -14 -140
-3 -21 8 -55 11 -75 9 -29 -3 -41 1 -59 20 -19 20 -30 24 -64 20 -29 -3 -51 2
-70 14 -32 21 -33 24 16 -40 34 -44 50 -54 91 -61 24 -4 80 -19 124 -33 72
-23 93 -25 210 -22 245 7 298 6 302 -7 3 -8 -5 -13 -22 -13 -14 0 -45 -4 -68
-10 -23 -5 -64 -12 -90 -15 -45 -6 -48 -8 -43 -30 3 -13 2 -26 -3 -29 -4 -3
-52 5 -105 19 -63 16 -104 22 -118 16 -21 -7 -20 -9 12 -19 19 -6 51 -14 70
-18 39 -7 123 -45 128 -56 2 -5 61 -8 132 -8 118 0 129 2 135 19 3 11 19 24
35 30 17 5 30 16 31 23 2 34 11 62 37 111 16 28 28 57 28 62 -2 20 -17 34 -30
29 -19 -7 -41 22 -24 32 7 5 18 9 23 9 6 0 39 10 75 23 113 40 118 41 150 29
31 -12 35 -28 9 -35 -11 -3 -11 -1 1 8 12 9 10 10 -10 8 -17 -2 -26 -10 -28
-26 -2 -13 2 -22 10 -22 9 0 14 -14 14 -40 1 -27 -2 -37 -10 -33 -6 4 -5 0 2
-9 15 -19 12 -52 -8 -88 -22 -41 -30 -91 -17 -111 11 -18 44 -19 917 -18 758
0 899 3 869 14 -51 19 -112 51 -161 85 -24 16 -106 72 -183 123 -294 196 -361
258 -593 546 -29 36 -90 104 -135 151 -134 138 -195 223 -250 347 -116 260
-130 515 -40 738 37 92 105 219 124 230 5 4 -21 28 -60 54 -147 98 -247 206
-400 433 -40 59 -79 112 -87 119 -8 6 -14 18 -14 25 0 8 -4 14 -9 14 -20 0
-146 272 -171 369 -16 62 -11 322 7 386 48 164 105 281 175 359 10 11 18 23
18 28 0 4 11 10 25 14 14 3 25 9 25 13 0 3 -37 25 -83 48 -45 23 -99 56 -120
74 -45 37 -207 232 -207 249 0 7 -10 26 -23 43 -12 18 -31 51 -42 75 l-20 43
-90 3 c-49 2 -94 5 -100 6 -27 6 -54 -1 -49 -13 5 -14 -43 -83 -63 -91 -21 -9
-15 12 7 24 11 6 20 15 20 21 0 6 7 17 16 26 21 22 8 30 -53 35 -43 4 -61 0
-95 -19 -27 -16 -50 -22 -66 -18 -31 8 -59 -2 -67 -23 -5 -14 -4 -15 6 -4 18
16 49 15 49 -2 0 -8 -10 -23 -23 -33 -23 -19 -47 -79 -39 -101 6 -19 26 -14
70 18 23 17 44 30 48 30 3 0 3 -15 -1 -33 -5 -24 -4 -28 4 -17 6 8 11 11 11 6
0 -5 10 -1 21 10 22 19 22 19 10 -3 -14 -28 -45 -45 -66 -37 -9 4 -24 -1 -34
-11 -15 -13 -29 -15 -65 -10 -41 7 -47 11 -66 51 -20 41 -21 45 -5 78 71 150
325 245 508 191 77 -23 81 -21 56 27 -12 24 -23 44 -24 46 -1 1 -65 5 -141 7
-162 6 -230 18 -275 48 -33 22 -50 69 -29 82 5 3 10 2 10 -3 0 -5 12 -12 28
-15 15 -3 45 -12 67 -20 23 -9 83 -18 135 -21 52 -4 114 -9 136 -12 50 -7 71
12 22 20 -18 4 -80 11 -138 16 -119 12 -193 40 -198 76 -5 32 50 41 86 14 27
-20 86 -33 200 -45 50 -5 63 -3 68 9 8 20 -13 56 -33 56 -9 0 -41 12 -70 26
-38 17 -69 25 -101 24 -125 -4 -133 6 -20 26 54 9 91 10 141 2 38 -5 70 -8 72
-6 1 1 6 46 10 98 10 142 22 185 85 305 47 87 73 124 128 176 80 76 166 129
211 129 48 0 37 15 -36 49 -139 65 -345 278 -430 445 -45 89 -53 132 -59 328
-5 170 -3 194 16 264 11 42 33 97 48 123 117 202 130 219 283 381 177 186 205
213 280 266 30 21 63 45 74 54 23 20 131 75 220 113 128 55 283 98 415 116 41
6 132 24 202 41 116 27 142 30 302 30 116 0 200 -5 253 -15 125 -25 268 -17
363 20 19 8 62 19 95 26 69 13 222 66 231 80 3 5 12 9 21 9 9 0 38 13 64 30
27 16 70 35 96 41 27 7 82 29 123 50 41 20 91 44 110 53 19 9 42 20 50 25 8 5
47 19 85 32 39 12 91 32 116 44 42 19 45 23 43 55 -1 19 -5 87 -8 150 -7 145
-19 217 -51 307 -32 93 -146 341 -194 423 -66 113 -118 203 -146 255 -15 28
-31 55 -35 60 -5 6 -34 61 -65 123 -31 62 -84 150 -118 196 -34 45 -73 102
-87 125 -14 23 -60 95 -102 161 -43 66 -78 122 -78 126 0 3 -8 18 -18 32 -31
46 -88 191 -131 331 -23 73 -49 145 -59 160 -10 14 -31 51 -46 81 -24 46 -137
170 -155 170 -3 0 -19 16 -35 35 -16 19 -37 35 -47 35 -18 0 -102 77 -120 111
-14 27 14 58 62 68 l34 7 -38 19 c-29 13 -37 23 -34 37 3 10 2 18 -2 18 -7 0
-8 15 -3 73 1 9 6 17 11 17 5 0 12 -8 14 -17 3 -10 5 1 6 25 0 23 -3 42 -9 42
-20 0 -10 49 15 68 24 19 36 72 16 72 -6 0 -8 20 -6 45 3 25 1 45 -3 45 -15 0
-7 55 9 62 16 6 32 78 18 78 -4 0 -4 14 1 31 5 18 7 36 4 40 -2 5 5 27 17 50
11 23 22 54 24 68 1 14 12 33 24 42 18 15 21 26 18 90 -3 61 -1 77 15 94 11
11 17 28 14 38 -6 24 3 47 18 47 15 0 38 38 30 51 -8 14 -12 69 -4 69 4 0 8
25 9 56 1 30 7 68 12 82 6 15 13 38 15 51 3 14 8 29 12 35 3 6 7 42 9 81 1 38
3 75 4 80 1 6 -2 17 -5 26 -4 10 0 23 9 33 9 9 13 16 9 16 -3 0 -1 6 5 13 6 8
8 17 5 20 -4 3 -9 24 -11 45 -4 32 0 43 19 58 19 15 23 26 20 54 -7 58 -4 102
7 113 7 7 7 16 0 29 -7 12 -6 18 1 18 6 0 8 5 5 10 -4 6 1 32 10 59 9 29 13
60 9 76 -4 17 0 39 11 63 10 20 21 44 25 52 4 8 6 40 5 70 -1 30 4 93 11 140
7 47 13 122 13 167 1 45 6 94 11 108 6 15 7 32 3 38 -3 6 -8 45 -9 87 -2 42
-10 96 -18 121 -9 24 -16 57 -16 72 0 16 -10 50 -21 77 -12 27 -19 56 -16 64
3 7 -1 25 -8 40 -8 14 -12 26 -10 26 2 0 -1 15 -6 33 -12 40 -22 94 -23 128
-1 14 -6 32 -13 40 -20 25 -30 92 -28 189 1 82 -3 134 -18 247 -2 12 -6 25 -9
29 -4 3 -4 12 -1 20 3 8 0 14 -7 14 -6 0 -8 4 -5 10 3 5 0 22 -8 37 -8 15 -17
47 -21 71 -3 23 -25 96 -47 162 -42 124 -42 137 -11 220 7 18 10 34 17 85 3
21 10 44 16 51 7 8 4 18 -8 30 -15 15 -15 17 -2 12 12 -5 19 4 29 35 8 23 13
48 11 55 -1 6 2 12 6 12 4 0 9 17 11 38 1 21 10 42 20 50 15 11 15 14 2 22
-12 8 -13 11 -1 19 9 6 10 10 2 16 -8 4 -9 11 -3 18 5 7 13 28 17 47 4 19 12
40 17 47 6 7 5 14 -2 18 -6 3 -8 11 -4 16 3 5 8 21 10 36 3 15 8 31 12 37 7
11 8 17 15 86 14 119 27 202 36 219 6 10 8 21 4 24 -3 4 4 27 16 52 11 24 21
49 21 54 0 4 8 19 19 32 15 19 18 37 15 89 -6 115 -13 163 -26 175 -38 34
-252 108 -302 104 -46 -3 -59 4 -21 12 91 20 85 16 74 49 -18 50 -1 174 34
250 9 19 25 64 37 98 11 35 30 73 41 85 17 19 18 22 5 25 -14 3 -16 17 -12 88
6 116 30 143 61 68 8 -20 19 -33 24 -30 5 3 14 36 20 74 16 109 18 133 9 138
-4 3 -8 24 -8 47 0 23 -3 59 -6 79 -6 33 -9 37 -29 32 -22 -5 -41 17 -30 36 3
4 -2 13 -10 20 -8 7 -15 20 -15 29 0 9 -11 39 -24 68 -13 28 -22 53 -20 56 3
3 -2 22 -10 42 -9 20 -14 41 -11 45 3 5 1 11 -5 15 -12 7 12 35 31 35 7 0 -4
12 -24 28 -37 28 -47 50 -24 56 52 16 51 15 33 34 -9 10 -16 26 -16 36 0 9
-12 21 -26 26 -18 7 -24 15 -20 26 5 12 2 15 -9 10 -10 -3 -18 1 -21 12 -3 9
-10 25 -15 35 -5 10 -7 22 -4 27 3 5 -2 13 -10 18 -20 11 -32 59 -49 202 -3
18 -21 54 -38 72 -7 7 -26 33 -43 57 -36 54 -113 134 -143 150 -12 6 -22 18
-22 26 0 7 -13 16 -30 20 -17 4 -30 13 -30 22 0 8 -9 17 -21 20 -16 5 -19 11
-14 31 5 21 -4 34 -58 86 -86 81 -118 106 -140 106 -42 0 -97 48 -97 84 0 13
6 26 13 29 19 6 -9 34 -48 47 -18 6 -40 22 -49 35 -18 27 -50 47 -81 50 -11 1
-23 3 -28 4 -4 0 -12 11 -16 24 -6 15 -33 32 -80 52 -57 24 -71 34 -71 52 0
14 -8 24 -22 28 -32 10 -108 58 -108 69 0 4 15 6 33 2 17 -3 52 -8 77 -11 l45
-5 -55 20 c-30 12 -91 30 -135 41 -44 11 -89 24 -100 29 -11 5 -39 12 -61 15
-63 8 -127 29 -131 42 -2 6 9 16 24 21 27 10 24 12 -23 17 -12 1 -27 6 -34 10
-11 7 -9 10 6 16 13 6 5 8 -26 7 -74 -1 -126 29 -82 48 24 11 -53 23 -333 54
-135 14 -147 18 -139 42 6 20 -17 64 -45 85 -14 10 -11 14 18 24 l35 12 -80
22 c-109 29 -290 121 -357 181 -24 22 -47 34 -66 34 -16 0 -31 3 -33 8 -4 10
-185 74 -225 79 -17 3 -41 14 -53 25 -11 11 -28 17 -36 14 -8 -3 -13 -2 -10 3
3 5 -16 15 -42 22 -34 10 -104 14 -257 12 -515 -4 -608 -4 -612 1 -3 2 -2 10
2 17 6 9 38 10 119 7 139 -7 169 1 93 25 -57 18 -203 21 -287 6z m333 -241
c80 0 60 -16 -58 -44 -54 -13 -95 -28 -95 -35 0 -26 -143 -35 -168 -11 -7 6
-23 12 -34 12 -37 0 -11 12 64 29 64 15 73 20 71 38 -3 27 19 31 107 19 36 -4
86 -8 113 -8z m-434 -182 c8 -9 11 -17 6 -17 -6 -1 -21 -3 -35 -5 -14 -2 -41
-4 -60 -5 -19 -1 -62 -11 -95 -21 -33 -11 -75 -20 -93 -20 -17 0 -35 -4 -38
-9 -8 -14 -24 -10 -24 6 0 8 -4 15 -10 15 -5 0 -10 5 -10 10 0 18 51 32 163
45 60 7 111 16 114 19 10 9 66 -3 82 -18z m-781 -204 c3 -10 -4 -13 -24 -11
-48 4 -64 0 -64 -15 0 -8 -6 -17 -12 -19 -10 -4 -9 -8 2 -16 12 -8 17 -6 22
12 5 15 6 9 4 -15 -4 -35 -2 -38 23 -38 25 -1 25 -1 6 -16 -12 -9 -30 -12 -48
-8 -15 3 -33 2 -40 -4 -15 -11 -158 -49 -217 -57 -25 -3 -55 -8 -67 -12 -19
-4 -23 -1 -23 18 0 12 3 20 6 16 4 -3 22 0 41 8 20 8 44 15 54 15 12 0 19 7
19 20 0 11 6 20 13 20 7 1 5 6 -5 14 -23 17 -12 27 17 16 18 -7 27 -4 41 11 9
10 27 19 40 19 13 0 40 11 60 25 20 14 40 22 44 20 5 -3 11 -1 14 4 9 14 89 8
94 -7z m410 9 c17 -1 -24 -41 -43 -41 -8 0 -15 -4 -15 -9 0 -4 -23 -11 -51
-14 -28 -4 -103 -16 -166 -28 -103 -20 -116 -20 -130 -7 -10 11 -11 18 -4 22
6 4 11 2 11 -3 0 -17 51 -12 95 9 22 11 36 19 30 20 -5 0 1 7 13 16 12 8 27
12 32 9 6 -3 10 -2 10 4 0 5 8 10 18 10 28 0 147 13 150 16 2 2 11 2 20 0 9
-2 23 -4 30 -4z m-923 -881 c19 -8 19 -9 -2 -9 -23 -1 -32 -16 -13 -23 7 -2 5
-16 -5 -38 -33 -71 -47 -90 -84 -117 -21 -15 -42 -36 -47 -47 -5 -12 -18 -23
-29 -25 -11 -2 -22 -6 -25 -10 -3 -4 -28 -5 -57 -3 -45 3 -52 7 -56 28 -3 19
4 32 32 56 20 17 36 34 36 37 1 12 40 51 52 51 7 0 13 5 13 10 0 6 5 10 12 10
7 0 22 11 33 23 11 13 37 29 58 36 20 7 37 17 37 22 0 11 18 11 45 -1z m233
-1062 c-11 -8 -11 -10 0 -15 11 -4 10 -8 -2 -22 -11 -12 -13 -25 -7 -53 6 -26
5 -43 -3 -54 -10 -13 -10 -25 1 -56 16 -48 4 -110 -26 -136 -12 -9 -23 -28
-26 -41 -5 -26 -31 -70 -51 -86 -7 -5 -14 -21 -16 -35 -2 -19 -16 -31 -51 -49
-37 -18 -47 -28 -44 -42 4 -16 -1 -19 -28 -19 -18 0 -38 -7 -45 -15 -7 -8 -25
-15 -41 -15 -21 0 -28 5 -31 23 -2 12 -10 23 -18 23 -8 1 -23 2 -32 3 -9 0
-23 13 -30 29 -11 22 -11 34 0 70 8 23 18 42 23 42 5 0 9 7 9 15 0 8 -4 15
-10 15 -20 0 -9 19 35 63 25 25 45 50 45 56 0 6 6 8 14 5 11 -4 12 -12 4 -36
-8 -24 -7 -33 5 -45 8 -8 20 -12 27 -8 16 10 50 87 44 97 -3 5 -2 8 3 7 26 -4
31 3 26 39 -4 28 0 44 17 65 12 15 27 27 35 27 7 0 17 13 23 28 6 17 23 35 43
45 41 19 89 63 89 80 0 7 6 19 13 26 10 10 13 9 15 -5 2 -9 -2 -21 -10 -26z
m-581 11 c-15 -9 -15 -12 -3 -25 16 -16 30 -19 22 -5 -3 5 1 11 8 14 8 3 16 1
18 -5 6 -18 -23 -141 -37 -158 -17 -21 -24 -45 -30 -99 -6 -55 -43 -162 -61
-176 -17 -15 -62 -127 -56 -143 2 -6 -2 -12 -9 -12 -6 0 -17 -7 -24 -16 -9
-13 -16 -14 -31 -6 -25 13 -75 4 -91 -17 -11 -14 -13 -14 -26 4 -9 11 -12 26
-8 35 11 23 12 108 1 115 -6 4 -8 11 -4 16 3 5 10 7 15 4 5 -4 9 -1 9 4 0 6 4
11 10 11 15 0 100 91 101 109 1 20 32 74 42 72 4 -1 17 8 29 18 11 11 24 18
29 16 10 -7 31 59 27 87 -2 12 -9 23 -16 26 -7 2 -10 -2 -6 -12 3 -9 2 -16 -4
-16 -22 0 11 105 33 105 15 1 52 24 37 25 -10 0 -10 4 0 20 7 11 20 20 28 20
12 -1 11 -3 -3 -11z m3572 -575 c-6 -8 -8 -14 -4 -14 4 0 3 -6 -3 -13 -6 -7
-7 -18 -3 -26 6 -9 11 -10 15 -2 4 6 17 11 29 11 22 -1 22 -1 3 -15 -11 -8
-29 -15 -40 -15 -19 -1 -19 -2 -5 -13 9 -7 19 -22 23 -35 7 -20 10 -21 23 -10
13 10 17 10 20 1 3 -7 11 -13 19 -13 9 0 12 5 9 10 -8 13 1 12 47 0 41 -12 55
-38 38 -70 -7 -13 -7 -20 -1 -20 6 0 8 -6 6 -12 -3 -7 -1 -19 4 -27 8 -12 12
-12 26 2 9 10 20 17 25 17 14 0 28 -31 23 -51 -4 -13 0 -19 11 -19 9 0 16 6
16 13 0 8 12 13 30 13 28 0 29 -1 14 -17 -10 -11 -12 -19 -5 -24 6 -3 14 1 17
9 10 25 22 18 16 -9 -2 -15 0 -25 7 -25 7 0 10 -4 7 -9 -3 -4 5 -7 18 -6 19 2
25 -3 29 -23 5 -25 4 -25 -9 -7 -12 16 -14 16 -14 3 0 -9 -9 -20 -21 -23 -18
-6 -19 -9 -6 -23 8 -10 12 -23 10 -30 -3 -9 1 -12 13 -10 13 2 20 -5 24 -24 4
-22 8 -25 20 -18 25 16 31 11 19 -12 -9 -16 -9 -23 0 -26 16 -5 14 -22 -4 -22
-21 0 -19 -27 3 -40 16 -10 15 -12 -5 -26 -16 -12 -23 -27 -23 -50 0 -19 -3
-33 -7 -33 -23 4 -33 -3 -33 -21 0 -11 -7 -20 -15 -20 -9 0 -15 -9 -15 -24 0
-28 -24 -40 -50 -26 -19 10 -31 1 -43 -32 -4 -12 -12 -15 -23 -11 -14 5 -16 2
-12 -21 5 -23 3 -26 -16 -20 -11 3 -23 6 -26 6 -29 1 -40 -4 -40 -17 0 -8 -7
-15 -15 -15 -8 0 -23 -4 -33 -9 -9 -5 -34 -16 -54 -25 -20 -9 -38 -20 -40 -25
-8 -25 -165 -112 -331 -186 -30 -13 -150 -30 -237 -34 -42 -2 -80 -15 -80 -27
0 -8 -8 -14 -17 -14 -10 0 -26 -11 -38 -25 -20 -25 -22 -26 -160 -26 -77 0
-167 5 -200 11 -33 6 -69 13 -80 15 -11 2 -51 11 -90 19 -110 26 -166 35 -225
40 -61 5 -133 14 -168 22 -35 7 -398 34 -466 34 -51 0 -57 2 -46 15 7 8 18 15
24 14 6 -1 20 -1 31 0 15 1 17 3 7 10 -10 6 -7 10 12 15 15 4 24 11 21 16 -3
6 5 9 19 8 19 -2 22 -5 14 -15 -7 -8 -7 -13 0 -13 5 0 15 7 22 15 7 8 22 15
34 15 20 1 20 1 3 14 -10 8 -19 23 -20 35 -1 12 -4 21 -8 21 -15 0 9 56 28 65
12 6 28 17 37 24 9 7 16 10 16 6 0 -4 6 -3 13 2 6 6 29 13 50 17 21 4 41 14
44 22 3 7 9 14 15 14 5 0 25 12 44 26 19 15 34 21 34 15 0 -14 11 -14 47 0 15
7 39 13 52 15 13 2 27 8 31 15 6 8 9 8 15 -1 4 -7 10 -8 14 -3 11 16 76 42 79
33 7 -20 23 -9 17 10 -5 15 -2 20 14 20 11 0 23 5 26 10 5 8 11 8 20 0 18 -15
31 6 15 25 -11 13 -15 13 -33 0 -27 -19 -57 -19 -57 -2 0 23 12 27 27 9 14
-16 14 -16 10 3 -3 18 1 20 37 19 22 -1 42 -6 44 -13 2 -6 17 -11 33 -11 21 0
29 -5 29 -17 0 -15 2 -16 10 -3 6 9 10 10 10 3 0 -7 12 -12 28 -12 47 0 67 -3
80 -14 8 -7 12 -5 12 6 0 21 18 31 33 20 18 -14 137 -16 137 -2 0 6 -7 9 -15
5 -8 -3 -22 -3 -31 1 -21 8 1 23 34 23 17 0 22 5 20 18 -2 11 1 18 5 18 5 -1
15 10 23 24 l14 25 6 -22 c7 -24 19 -30 29 -13 4 6 13 4 23 -7 16 -16 17 -15
20 1 3 13 10 16 33 11 18 -4 29 -3 29 4 0 6 -5 11 -11 11 -6 0 -1 9 12 20 21
17 22 21 9 30 -13 8 -11 11 7 16 13 4 20 10 17 15 -3 5 -1 9 4 9 6 0 13 7 16
16 4 12 2 15 -9 10 -22 -8 -18 12 5 24 11 6 20 17 20 25 0 8 5 15 10 15 6 0
10 7 10 15 0 8 9 19 19 25 16 8 22 6 29 -6 6 -11 12 -13 16 -6 3 6 2 13 -4 17
-5 3 -10 11 -10 17 0 6 8 4 18 -5 21 -20 53 -13 70 14 12 18 11 19 -7 10 -28
-16 -31 -15 -47 24 -18 43 -18 45 2 45 9 0 12 5 8 12 -5 7 -3 8 5 3 9 -5 10
-10 2 -18 -15 -15 -14 -37 2 -37 19 0 49 35 40 45 -5 4 -2 5 5 1 7 -4 15 -1
18 9 4 10 13 13 24 10 22 -7 37 12 21 28 -14 14 -15 30 -1 22 6 -3 10 -1 10 4
0 6 -7 11 -15 11 -28 0 -15 28 15 32 21 3 30 0 30 -9 0 -11 4 -11 16 2 14 13
19 14 25 3 6 -8 12 -9 17 -3 4 6 28 10 55 10 32 0 47 4 47 12 0 10 11 11 42 7
35 -6 40 -5 35 9 -3 9 -1 18 6 21 8 3 5 11 -9 23 -11 10 -31 33 -43 51 l-22
32 25 0 c28 0 33 -9 14 -28 -7 -7 -8 -12 -2 -12 15 0 30 14 37 32 5 15 10 14
37 -10 16 -14 30 -32 30 -39 0 -7 5 -13 11 -13 6 0 9 9 6 20 -3 11 -1 20 5 20
5 0 12 -9 15 -20 6 -23 14 -25 31 -8 19 19 27 0 12 -30 -8 -15 -16 -31 -19
-36 -2 -5 1 -6 7 -2 6 3 14 1 18 -5 12 -21 23 14 17 57 -6 43 14 107 30 97 4
-2 3 -11 -4 -19z m2173 -1180 c42 -7 40 5 38 -194 -1 -47 0 -101 1 -120 2 -44
2 -59 -4 -92 -3 -21 -1 -25 12 -21 12 4 11 2 -3 -9 -15 -12 -16 -18 -7 -36 14
-26 14 -35 1 -27 -5 3 -10 -3 -10 -14 0 -12 3 -21 8 -21 4 0 7 -14 7 -31 0
-23 -6 -34 -21 -40 -12 -4 -24 -15 -27 -24 -4 -9 -3 -13 3 -10 12 7 13 -5 2
-21 -13 -19 -43 -24 -57 -10 -8 7 -19 42 -25 77 -7 35 -19 83 -27 106 -8 23
-16 66 -19 95 -2 29 -7 72 -12 94 -5 24 -5 49 0 57 5 9 5 33 0 54 -5 22 -6 48
-3 58 4 11 6 39 6 62 0 29 4 43 13 43 7 0 11 4 7 9 -10 17 53 25 117 15z
m-3957 -147 c125 -6 286 -27 330 -42 22 -7 60 -16 85 -19 96 -11 242 -113 268
-186 21 -58 34 -102 30 -103 -1 -1 -17 -10 -35 -19 -17 -10 -41 -18 -52 -18
-12 0 -21 -4 -21 -9 0 -5 -15 -5 -32 -2 -37 8 -126 -19 -143 -43 -25 -33 -153
-46 -204 -20 -14 7 -32 9 -40 5 -18 -8 -35 -7 -101 9 -25 6 -67 12 -95 14
-160 12 -202 19 -230 35 -16 10 -52 22 -78 25 -26 4 -64 14 -85 23 -20 8 -73
17 -117 19 -165 6 -272 16 -324 31 -30 9 -81 15 -113 14 -51 -1 -58 1 -58 18
0 14 6 19 20 16 11 -2 23 1 26 7 5 7 2 8 -7 3 -11 -6 -12 -5 -2 5 10 11 15 11
28 0 18 -15 21 0 3 18 -21 21 6 38 36 24 21 -9 27 -8 34 4 5 8 19 16 33 17 13
0 28 6 32 12 6 7 10 6 14 -3 3 -9 12 -3 24 17 13 22 26 31 44 31 15 0 24 4 20
9 -3 5 4 12 15 16 12 4 20 15 20 27 l0 21 -18 -20 c-14 -17 -19 -18 -30 -7 -7
8 -8 14 -2 14 5 0 10 7 10 16 0 14 7 15 39 10 24 -4 51 -1 72 8 49 20 129 31
129 17 0 -15 35 -14 48 2 10 12 226 14 427 4z m-2325 -399 c22 -5 41 -18 37
-26 -2 -4 10 -20 26 -37 16 -16 26 -24 23 -17 -6 9 1 11 25 7 19 -3 36 -9 39
-13 10 -14 42 -10 36 4 -8 22 14 17 36 -8 12 -14 18 -34 17 -53 -2 -17 0 -36
5 -43 4 -6 4 -16 1 -22 -3 -5 -1 -10 5 -10 6 0 8 -5 5 -10 -4 -6 -11 -8 -16
-5 -5 4 -9 0 -9 -8 0 -9 -9 -14 -24 -13 -13 0 -22 4 -19 9 6 9 -46 29 -58 21
-5 -3 -9 -2 -8 3 3 12 -12 43 -21 43 -17 0 -19 -32 -2 -50 22 -24 36 -42 45
-57 9 -15 -6 -10 -72 24 -25 12 -62 23 -82 23 -26 0 -44 8 -63 26 -31 32 -32
47 -6 85 19 26 20 30 5 58 -8 17 -15 42 -15 57 0 25 2 26 38 21 20 -4 44 -8
52 -9z m6086 -763 c-3 -8 0 -14 6 -12 10 2 16 -11 32 -76 5 -21 4 -27 -5 -21
-9 5 -10 2 -6 -9 3 -9 3 -27 -2 -39 -5 -14 -3 -35 6 -57 8 -19 17 -55 19 -80
2 -25 8 -71 13 -101 5 -30 6 -84 4 -120 -6 -91 -5 -113 10 -122 8 -5 9 -11 2
-15 -10 -7 -11 -21 -5 -40 1 -5 2 -12 1 -17 -1 -4 2 -13 7 -20 28 -36 -14
-124 -53 -110 -17 7 -16 8 5 16 22 8 22 10 8 24 -12 12 -14 24 -8 45 8 26 7
28 -10 19 -10 -5 -26 -7 -36 -3 -16 6 -16 7 0 18 15 11 13 14 -14 23 -23 8
-30 17 -30 36 0 20 4 24 18 19 15 -6 16 -5 2 11 -8 11 -16 14 -18 7 -2 -6 -11
-11 -19 -11 -13 0 -13 2 -2 16 12 15 11 16 -9 10 -12 -4 -22 -4 -21 1 4 16
-13 43 -23 37 -6 -4 -8 4 -6 17 2 14 -5 32 -15 42 -10 10 -16 25 -13 32 2 7
-2 19 -9 25 -8 7 -12 16 -9 21 3 5 -3 6 -12 2 -14 -5 -16 -2 -10 20 5 21 3 25
-8 21 -10 -4 -15 0 -14 13 1 10 -6 44 -15 77 -14 51 -14 61 -1 73 20 20 17 41
-6 48 -20 6 -24 15 -21 47 1 11 -7 18 -26 21 -25 3 -23 4 14 11 24 5 48 15 54
23 10 11 14 11 20 1 7 -10 9 -10 9 0 0 7 14 12 36 12 35 0 111 37 134 65 16
19 34 19 26 0z m-811 -365 c4 -6 10 -8 15 -5 17 11 82 14 106 5 15 -6 40 -6
64 -1 39 9 57 -3 25 -15 -8 -4 -15 -10 -15 -16 0 -5 4 -7 9 -4 5 3 15 -1 22
-10 16 -19 23 -58 9 -49 -15 9 -12 -11 3 -24 8 -6 17 -7 22 -3 4 4 6 1 3 -7
-2 -8 -14 -18 -27 -23 -19 -6 -22 -5 -17 7 5 15 -14 17 -25 2 -11 -15 -69 -10
-88 7 -11 10 -24 15 -30 11 -6 -3 -32 8 -57 26 -37 25 -48 29 -55 18 -6 -9 -7
3 -5 31 2 25 2 37 -1 28 -2 -10 -11 -18 -19 -18 -17 0 -17 5 -4 31 11 20 54
26 65 9z m-1133 -1827 c27 -15 48 -31 48 -37 0 -6 16 -22 35 -35 19 -13 35
-29 35 -37 0 -9 14 -12 49 -10 39 3 48 1 44 -10 -3 -8 0 -14 6 -14 6 0 11 8
11 17 0 9 3 13 6 10 4 -3 15 -2 26 4 36 19 30 1 -13 -41 -33 -32 -49 -41 -73
-39 -64 4 -75 0 -92 -36 -9 -20 -28 -42 -43 -49 -44 -23 -131 -39 -195 -37
-94 4 -100 3 -111 -12 -5 -7 -40 -21 -76 -30 -67 -17 -110 -18 -437 -14 -167
2 -208 -4 -160 -22 36 -14 78 -101 48 -101 -5 0 -10 -6 -10 -14 0 -23 -18 -29
-77 -27 -48 1 -161 34 -173 51 -13 17 -80 50 -103 50 -14 0 -49 11 -79 25 -29
14 -62 25 -73 25 -50 1 -78 56 -78 153 1 115 30 148 133 148 74 1 113 25 93
58 -13 21 -14 21 50 35 26 6 28 5 22 -16 -4 -13 -4 -20 0 -16 4 4 25 -2 46
-13 64 -32 118 -35 190 -9 71 26 119 29 429 33 107 1 201 6 208 11 22 14 164
33 217 29 28 -3 71 -16 97 -30z m-1678 -412 c35 -17 100 -53 146 -80 45 -28
87 -48 93 -44 6 3 7 1 3 -5 -4 -7 -2 -12 4 -12 6 0 26 -11 43 -24 18 -13 55
-37 82 -53 78 -44 113 -65 175 -105 32 -21 65 -38 73 -38 9 0 19 -4 22 -10 3
-5 17 -10 31 -10 14 0 33 -4 43 -9 17 -10 36 -13 171 -27 103 -11 251 -8 300
6 59 17 37 24 -34 11 -74 -14 -210 2 -288 34 -34 14 -69 25 -77 25 -15 0 -63
39 -88 70 -6 8 -14 31 -18 51 l-7 36 60 22 c50 19 66 21 98 12 54 -15 300 -13
414 3 52 8 136 25 185 39 50 14 115 30 145 36 30 7 65 18 77 26 24 16 53 18
128 10 28 -3 69 -6 93 -6 35 0 42 -3 42 -18 0 -11 -6 -22 -12 -25 -7 -3 1 -5
18 -3 23 2 31 0 27 -10 -6 -15 11 -17 37 -3 13 7 21 7 25 0 4 -7 14 -6 28 2
12 6 23 11 25 10 11 -8 32 2 37 18 3 11 11 20 17 20 7 0 7 -4 0 -12 -12 -16
-27 -77 -23 -100 1 -11 -4 -18 -13 -18 -9 0 -15 -3 -15 -7 4 -26 -4 -46 -26
-65 -14 -12 -25 -29 -25 -38 0 -9 -15 -22 -35 -30 -19 -8 -35 -19 -35 -25 0
-22 -85 -95 -110 -95 -10 0 -21 -4 -24 -9 -3 -5 -14 -7 -24 -5 -9 3 -27 -4
-39 -15 -12 -12 -29 -21 -38 -21 -25 0 -75 -29 -75 -43 0 -7 5 -18 11 -24 6
-6 12 -19 13 -29 2 -10 9 -20 17 -22 11 -3 11 -1 -1 7 -13 10 -13 11 0 11 13
0 13 1 0 10 -20 13 -4 13 21 -1 11 -5 17 -15 13 -20 -3 -6 2 -9 11 -7 10 2 20
-3 22 -9 3 -7 -1 -13 -8 -13 -6 0 0 -9 15 -21 41 -32 33 -42 -30 -37 -46 4
-60 10 -79 34 -14 16 -24 24 -25 18 0 -6 -31 -17 -70 -24 -60 -11 -71 -17 -82
-40 -11 -26 -60 -54 -110 -64 -13 -2 -43 -9 -68 -14 -25 -5 -73 -8 -107 -7
-35 2 -63 0 -63 -4 0 -3 -20 -13 -44 -20 -47 -14 -86 -54 -63 -65 6 -3 0 -4
-15 -3 -17 3 -29 -1 -32 -10 -3 -8 -11 -13 -18 -12 -34 6 -245 -95 -253 -121
-7 -21 -25 -28 -25 -9 0 5 -4 8 -8 5 -5 -3 -21 -7 -37 -10 -15 -3 -40 -16 -54
-29 -39 -35 -78 -57 -102 -57 -12 0 -31 -8 -41 -17 -12 -11 -22 -13 -26 -7
-13 20 -43 24 -67 8 -13 -9 -29 -13 -35 -9 -5 3 -10 2 -10 -3 0 -5 -9 -12 -20
-15 -21 -5 -28 -27 -8 -27 6 0 19 7 28 15 14 13 19 13 44 0 16 -8 34 -15 42
-15 26 0 24 -20 -3 -26 -27 -7 -63 -34 -46 -34 4 0 2 -4 -6 -9 -8 -5 -15 -20
-17 -33 -3 -34 -5 -35 -13 -15 -7 18 -8 18 -31 -1 -14 -11 -22 -24 -18 -28 4
-4 14 -1 22 5 10 8 16 9 21 1 3 -6 10 -8 15 -5 16 10 18 -23 3 -45 -9 -12 -16
-39 -17 -59 -1 -26 -11 -49 -33 -76 l-33 -40 0 33 c0 19 8 42 20 54 23 25 21
43 -3 43 -23 0 -34 15 -18 24 11 7 9 11 -8 20 -21 11 -30 41 -12 41 5 0 14 14
21 31 8 18 18 28 26 25 7 -3 16 -1 19 3 2 5 -10 11 -28 14 -17 4 -47 9 -64 13
-22 4 -33 2 -33 -5 0 -6 -16 -11 -35 -11 -23 0 -35 5 -35 13 0 8 -8 29 -17 48
-10 19 -18 58 -18 87 -1 60 -12 75 -70 95 -35 12 -40 18 -42 46 -1 18 -9 38
-18 45 -10 7 -21 36 -27 67 -12 70 -12 72 -21 86 -5 7 -10 46 -13 85 -2 40 -7
80 -10 88 -24 67 -22 508 3 569 33 80 67 88 167 42z m-1464 -7805 c88 -33 87
-32 63 -44 -11 -6 -23 -9 -25 -6 -12 11 -29 -28 -34 -77 -3 -29 -6 -55 -7 -58
-2 -11 14 -51 21 -51 4 0 6 -32 4 -71 -4 -62 -2 -73 17 -90 25 -24 29 -61 5
-57 -19 3 -30 -28 -26 -74 2 -19 81 -58 118 -58 13 0 24 -4 24 -10 0 -5 -13
-10 -28 -10 -15 0 -45 -9 -67 -20 -57 -29 -81 -23 -101 24 -10 27 -12 42 -5
44 12 4 15 23 4 20 -5 0 -26 7 -48 16 l-39 18 32 14 c33 13 52 46 52 89 0 20
-7 26 -41 35 -42 12 -115 5 -124 -10 -3 -5 -17 -7 -31 -4 -38 7 -67 -5 -59
-24 3 -9 7 -46 9 -83 5 -96 1 -93 96 -61 22 8 70 8 70 0 0 -13 -62 -58 -81
-58 -11 0 -19 -7 -19 -17 0 -10 -9 -29 -20 -43 -17 -23 -24 -25 -82 -22 -60 3
-64 2 -85 -27 -29 -38 -46 -116 -37 -161 4 -19 7 -37 6 -41 0 -3 18 -4 41 -3
58 3 64 -4 26 -32 -51 -38 -152 -30 -121 9 16 21 26 70 23 119 -2 25 2 55 8
66 8 15 7 23 -4 32 -12 10 -15 7 -20 -17 -4 -15 -13 -41 -21 -58 -14 -29 -14
-28 -8 30 5 57 34 124 68 158 19 19 23 115 6 150 -12 26 -15 26 -36 12 -29
-18 -36 -8 -28 42 7 45 26 77 58 98 20 14 23 21 16 45 -4 16 -7 30 -5 32 11
11 11 69 0 78 -15 13 -18 9 -35 -44 l-13 -39 -11 27 c-14 35 -19 36 -45 6
l-21 -25 4 35 c10 82 29 130 63 160 29 26 41 30 93 30 59 0 60 -1 87 -41 26
-40 27 -44 24 -175 -2 -116 0 -134 13 -134 9 0 16 7 16 15 0 8 4 15 10 15 5 0
8 18 6 40 -2 22 1 40 5 40 5 0 9 -10 9 -22 1 -62 5 -65 98 -65 l87 0 0 45 c0
25 5 55 11 68 16 31 9 33 -106 27 -77 -4 -99 -2 -115 11 -17 13 -18 17 -6 25
9 6 24 6 38 0 14 -5 58 -9 99 -9 59 0 74 3 75 15 1 15 4 27 9 43 5 14 -2 47
-12 60 -6 6 -29 12 -52 13 -32 0 -37 2 -21 9 11 5 16 9 10 10 -8 1 54 25 75
29 3 0 21 -5 40 -13z m-1300 -214 c0 -10 -12 -25 -27 -34 -72 -42 -76 -51 -80
-156 -3 -66 -8 -102 -18 -111 -12 -12 -13 -3 -8 61 7 96 0 131 -27 123 -11 -3
-27 -2 -37 4 -12 6 -24 6 -37 -1 -15 -8 -21 -8 -24 1 -5 14 -52 15 -52 1 0 -5
11 -10 24 -10 29 0 34 -11 31 -78 -1 -39 -7 -56 -21 -67 -19 -14 -19 -14 0
-28 18 -13 20 -25 17 -118 -2 -98 -4 -106 -29 -131 -31 -32 -86 -43 -104 -21
-9 11 -9 22 1 49 7 18 12 62 11 96 0 35 -1 79 -1 98 0 19 -6 45 -14 57 -23 35
-18 50 32 104 31 33 43 53 36 60 -19 19 -108 21 -193 4 -73 -15 -88 -22 -115
-53 -21 -22 -34 -31 -39 -24 -10 17 88 106 159 144 l60 33 182 0 c100 0 185 3
189 8 4 4 25 7 46 7 30 0 38 -4 38 -18z m3331 -62 c14 -8 19 -21 18 -53 -1
-23 -3 -34 -6 -24 -8 29 -20 19 -15 -13 4 -27 9 -30 63 -41 46 -9 59 -16 59
-30 0 -16 5 -17 33 -11 17 3 44 7 59 7 14 0 24 3 22 6 -6 11 63 27 93 21 40
-7 123 -69 116 -87 -6 -16 -9 -17 -70 -19 -24 -1 -43 3 -43 8 0 14 -32 46 -45
46 -23 0 -24 -27 -2 -69 16 -32 19 -46 11 -59 -8 -12 -8 -24 -1 -40 10 -21 16
-23 51 -18 77 11 111 11 111 1 0 -5 -15 -9 -33 -8 -26 2 -33 -1 -29 -11 4 -9
-9 -23 -31 -38 -31 -20 -44 -23 -82 -16 -113 19 -139 20 -174 8 -20 -6 -34
-15 -32 -19 7 -10 -67 0 -81 11 -7 6 -42 13 -78 15 -54 5 -66 3 -71 -11 -7
-19 -56 -14 -116 13 -37 16 -55 40 -21 27 10 -4 15 -4 11 -1 -3 4 -2 20 2 36
5 18 5 41 0 55 -7 17 -7 23 0 19 6 -3 10 4 10 18 0 28 -41 77 -65 77 -19 0
-19 5 1 35 19 29 54 32 124 11 40 -12 50 -11 88 5 57 24 72 58 48 104 -10 18
-15 38 -12 44 9 14 61 14 87 1z m-3757 -96 c8 -21 -21 -67 -36 -58 -7 4 -8 3
-4 -5 4 -6 11 -9 16 -6 5 3 11 1 14 -4 3 -5 -1 -11 -9 -14 -28 -11 -46 -66
-46 -140 0 -39 -5 -77 -10 -83 -7 -9 -4 -14 10 -19 24 -7 53 -75 39 -92 -6 -8
-3 -10 11 -6 14 3 34 -4 55 -21 29 -21 45 -26 96 -26 57 0 63 2 106 42 24 22
44 48 43 57 -1 9 -1 49 0 89 1 77 17 102 19 28 0 -25 3 -59 7 -76 7 -34 17
-35 83 -15 43 14 10 -48 -35 -66 -16 -6 -23 -17 -23 -34 0 -18 -8 -29 -27 -38
-16 -6 -32 -17 -36 -24 -4 -7 -13 -13 -20 -13 -7 0 -34 -11 -62 -25 -58 -28
-161 -34 -233 -12 -53 16 -128 86 -143 136 -17 54 -20 202 -4 247 10 31 10 40
0 49 -7 5 -15 24 -18 40 l-5 30 22 -27 c12 -16 27 -28 34 -28 6 0 19 12 29 28
24 37 63 71 90 78 13 4 20 10 17 15 -3 5 -1 9 4 9 6 0 13 -7 16 -16z m2678 -3
c28 -4 70 -162 47 -177 -5 -3 -5 -14 1 -24 5 -10 10 -26 10 -35 0 -9 10 -25
21 -34 16 -12 20 -23 15 -39 -12 -37 -48 -40 -155 -12 -45 11 -105 5 -96 -10
3 -5 -15 -8 -40 -8 -43 0 -45 1 -45 28 0 16 -5 41 -12 55 -10 22 -8 29 13 51
23 25 23 26 3 20 -17 -5 -22 -2 -26 16 -7 37 5 69 21 59 7 -5 11 -13 8 -18 -3
-5 0 -10 8 -10 8 0 11 5 8 11 -3 7 -1 6 7 -1 7 -6 15 -32 17 -57 4 -32 10 -46
20 -46 10 0 14 -7 11 -18 -4 -13 3 -22 23 -31 34 -15 65 -7 79 20 11 19 14 97
7 159 -6 49 -48 71 -117 63 -44 -5 -51 -9 -47 -25 9 -31 -22 -34 -46 -5 -12
14 -32 28 -45 32 -49 14 -5 25 96 24 59 0 118 4 132 10 14 5 36 8 50 6 14 -2
28 -4 32 -4z m-2156 -37 c20 -5 22 -14 26 -82 2 -46 0 -80 -6 -84 -6 -4 -11
-33 -12 -65 -3 -97 -13 -112 -59 -94 -18 7 -20 18 -21 95 0 47 3 86 8 86 4 0
4 10 -1 23 -11 31 -7 93 9 112 13 16 23 18 56 9z m2599 -15 c42 -11 44 -13 38
-38 -4 -14 -7 -38 -6 -53 1 -16 -2 -28 -7 -28 -6 0 -10 -17 -10 -38 0 -28 6
-44 25 -60 14 -12 25 -26 25 -31 0 -5 9 -11 21 -14 25 -7 16 -27 -11 -27 -10
0 -20 -5 -22 -12 -3 -9 -13 -9 -39 -2 -31 9 -35 14 -43 59 -26 147 -43 210
-57 211 -8 1 -22 2 -32 3 -26 1 -16 24 14 32 36 10 56 10 104 -2z m-2068 -57
c15 -11 36 -34 46 -51 l18 -30 -41 -41 c-22 -22 -46 -40 -53 -40 -18 0 -63
-49 -75 -81 -13 -32 10 -49 67 -49 22 0 43 -5 47 -12 4 -7 3 -8 -4 -4 -7 4
-12 1 -12 -8 0 -8 -16 -26 -36 -40 -30 -20 -44 -23 -87 -19 -29 3 -60 9 -69
14 -20 11 -117 1 -134 -12 -7 -6 -16 -3 -24 6 -7 8 -15 13 -19 11 -7 -5 -5
135 3 232 l6 62 -51 0 c-43 0 -48 2 -37 14 8 7 25 17 38 21 14 4 28 12 31 17
4 6 35 1 78 -12 81 -24 123 -18 188 26 42 28 77 27 120 -4z m930 -10 c6 -4 14
-24 18 -44 9 -46 16 -51 87 -72 83 -24 106 -22 114 12 4 15 9 31 11 35 7 12
32 -24 33 -45 0 -10 8 -18 18 -18 9 -1 28 -7 42 -15 24 -14 24 -14 3 -15 -12
0 -33 -5 -47 -11 -20 -9 -28 -9 -40 4 -29 28 -147 33 -243 10 -17 -4 -23 -1
-23 12 0 10 -8 24 -17 32 -10 8 -13 12 -6 9 16 -8 26 28 18 64 -9 42 4 60 32
42z m1317 -112 c16 -6 26 -17 26 -29 0 -24 36 -51 67 -51 16 0 23 -6 23 -19 0
-49 -150 -40 -181 10 -4 7 0 24 9 38 10 14 12 22 5 18 -18 -11 -16 9 3 27 18
19 16 19 48 6z m1701 -2327 c13 -3 32 -30 56 -77 l35 -73 -24 -22 c-13 -11
-36 -21 -50 -21 -23 0 -31 10 -59 70 -45 95 -42 151 7 133 8 -3 24 -8 35 -10z
m-3145 -199 c22 -9 40 -23 40 -31 0 -21 29 -42 57 -43 20 0 44 -19 26 -21 -66
-6 -112 -12 -181 -24 -91 -16 -174 -7 -201 20 -11 10 -11 15 -3 15 7 0 12 9
12 20 0 18 5 22 28 19 4 -1 6 -6 4 -11 -2 -6 19 -7 59 -3 34 4 80 7 103 7 32
-1 37 1 23 9 -21 12 -13 30 11 23 11 -4 8 2 -8 15 -30 25 -23 26 30 5z m2543
-59 c82 -37 86 -54 15 -57 -79 -2 -99 -4 -140 -16 -69 -19 -114 14 -58 43 16
8 37 24 47 34 16 17 48 31 64 27 3 0 36 -14 72 -31z m215 -343 c73 -56 67 -98
-21 -141 -35 -17 -66 -27 -72 -22 -5 4 -41 16 -78 26 -47 13 -78 28 -98 48
-16 15 -29 32 -29 35 0 4 14 13 30 20 17 8 30 20 30 28 0 49 176 53 238 6z
m-1468 -481 c28 -19 -3 -26 -113 -26 -96 -1 -124 -5 -197 -29 -47 -15 -105
-34 -130 -42 -57 -17 -181 -37 -188 -29 -3 3 1 5 10 5 8 0 23 9 33 20 27 29
130 78 200 93 70 16 363 22 385 8z m2000 -350 c0 -9 -20 -33 -44 -54 -25 -20
-47 -45 -51 -56 -5 -16 -50 -41 -76 -41 -11 0 -69 60 -69 71 0 5 8 9 17 9 9 0
27 10 41 23 63 59 182 91 182 48z m-3196 -219 c17 -28 -213 -115 -289 -109
-54 3 -40 37 15 37 11 0 43 14 72 31 37 22 67 32 100 33 25 1 50 4 54 9 10 10
42 9 48 -1z"/>
<path d="M6195 4682 c-22 -8 -46 -16 -53 -18 -9 -2 -6 -14 9 -41 11 -20 23
-60 26 -89 5 -43 10 -54 30 -63 68 -31 136 12 114 73 -5 11 -12 44 -16 73 -10
73 -39 91 -110 65z"/>
<path d="M6360 4680 c0 -5 5 -10 11 -10 7 0 9 -10 7 -25 -6 -31 0 -32 12 -2 8
20 9 19 9 -12 1 -25 -2 -32 -14 -27 -17 6 -16 -24 2 -46 12 -14 13 -17 13 -48
0 -19 53 -50 86 -50 21 0 43 28 37 50 -3 11 0 27 7 35 8 10 9 15 1 15 -6 0
-16 21 -22 46 -16 63 -41 84 -101 84 -26 0 -48 -4 -48 -10z"/>
<path d="M10998 11495 c-3 -14 -1 -25 3 -25 5 0 9 -4 9 -10 0 -5 -6 -9 -12 -7
-10 1 -13 -26 -11 -113 1 -93 7 -131 28 -200 15 -47 28 -94 30 -106 3 -25 27
-64 37 -64 5 0 8 -7 8 -15 0 -8 4 -23 10 -33 5 -9 19 -38 30 -64 12 -28 27
-48 36 -48 8 0 13 -4 10 -8 -3 -5 6 -20 20 -35 14 -15 21 -27 17 -27 -4 0 9
-16 29 -34 21 -18 35 -36 31 -39 -3 -4 -1 -12 5 -20 6 -7 14 -28 17 -47 3 -19
13 -45 21 -57 10 -16 11 -23 3 -23 -14 0 -3 -14 12 -16 22 -3 23 -5 11 -12
-10 -7 -8 -14 8 -32 13 -15 18 -31 14 -46 -4 -13 -2 -24 4 -24 5 0 17 -18 26
-41 16 -39 72 -120 89 -127 4 -2 7 -12 7 -23 0 -10 6 -19 13 -20 6 0 3 -4 -8
-9 -11 -5 -15 -9 -8 -9 9 -1 9 -12 -1 -46 -8 -25 -11 -45 -7 -45 4 0 13 -11
19 -25 6 -14 15 -24 19 -23 11 3 63 -33 63 -44 0 -5 9 -18 20 -30 10 -12 17
-25 14 -30 -3 -4 2 -11 10 -14 9 -3 16 -14 16 -24 0 -13 6 -17 19 -13 22 6 37
-23 16 -31 -14 -5 -10 -38 3 -33 14 4 82 -45 82 -59 0 -8 3 -13 8 -12 4 1 20
-9 35 -24 19 -18 24 -28 15 -31 -9 -4 -7 -6 4 -6 11 -1 15 -7 11 -21 -4 -14 0
-20 11 -20 9 0 16 -5 16 -10 0 -6 15 -17 33 -25 17 -8 29 -14 25 -15 -5 0 1
-9 12 -20 11 -11 20 -27 20 -35 0 -8 14 -21 30 -30 17 -9 30 -22 30 -30 0 -8
9 -15 21 -15 12 0 17 -4 14 -11 -8 -12 25 -40 38 -32 4 2 12 -9 18 -26 6 -17
17 -31 24 -31 7 0 24 -9 38 -20 14 -11 32 -17 41 -14 11 4 16 1 16 -11 0 -9 5
-13 10 -10 6 3 13 0 16 -8 3 -9 17 -18 30 -21 14 -4 22 -11 19 -15 -3 -5 5 -7
17 -3 17 4 20 2 15 -11 -5 -13 -1 -17 17 -17 14 0 26 -4 28 -8 4 -10 87 -65
111 -75 9 -3 17 -11 17 -17 0 -6 4 -8 10 -5 10 6 114 -73 142 -109 9 -11 20
-21 25 -21 19 -1 93 -51 93 -63 0 -13 99 -111 113 -112 4 0 7 -5 7 -11 0 -6
14 -28 30 -49 17 -21 30 -43 30 -49 0 -7 6 -11 13 -10 6 1 23 0 37 -1 18 -2
20 -4 8 -7 -24 -6 -23 -9 13 -44 18 -17 27 -34 22 -38 -15 -10 -23 -40 -13
-46 6 -4 10 -1 10 5 0 6 4 9 9 6 5 -4 7 2 4 12 -2 10 3 24 12 32 14 12 15 9
12 -23 -2 -19 -12 -44 -22 -54 -17 -17 -17 -18 -1 -21 13 -3 15 -7 5 -18 -6
-8 -18 -14 -25 -14 -8 0 -14 -6 -14 -14 0 -7 -10 -16 -22 -20 -19 -5 -21 -8
-8 -16 11 -7 12 -12 3 -18 -7 -5 -9 -13 -3 -21 4 -8 6 -20 3 -28 -3 -8 -2 -13
3 -12 24 4 34 -3 34 -26 0 -16 6 -25 15 -25 8 0 15 -4 15 -9 0 -15 -18 -23
-25 -11 -9 15 -28 12 -22 -4 3 -8 -6 -24 -19 -37 -21 -20 -27 -21 -35 -9 -8
11 -9 9 -4 -9 4 -12 7 -38 7 -56 0 -25 4 -32 14 -28 10 4 14 -3 14 -26 0 -17
-4 -31 -9 -31 -12 0 -23 -62 -13 -69 13 -9 22 -41 12 -41 -6 0 -10 5 -10 12 0
6 -3 8 -7 4 -5 -4 -9 -42 -10 -84 -2 -43 -4 -90 -4 -106 -1 -17 -11 -38 -23
-49 l-21 -18 23 6 c24 7 29 -4 11 -22 -12 -12 -4 -33 12 -33 6 0 8 9 4 19 -3
11 -1 22 5 26 6 4 10 -4 10 -19 0 -14 -6 -29 -14 -33 -18 -10 -33 -63 -18 -63
6 0 12 7 14 16 2 13 6 12 23 -7 16 -18 17 -21 3 -16 -23 8 -56 -29 -40 -45 9
-9 15 -7 27 8 11 15 17 16 23 6 5 -7 16 -10 25 -6 24 9 21 -12 -3 -29 -15 -10
-19 -23 -16 -48 4 -39 22 -50 29 -17 4 16 5 14 4 -7 -1 -16 5 -36 13 -43 13
-11 13 -13 -2 -23 -22 -13 -24 -33 -2 -25 12 5 15 2 10 -9 -3 -9 -2 -13 3 -10
5 3 17 -5 25 -17 12 -16 13 -25 4 -35 -9 -12 -7 -13 13 -8 21 5 27 1 38 -22 7
-15 17 -36 22 -45 12 -24 12 -26 -8 -31 -16 -4 -16 -5 -1 -6 25 -2 41 -81 20
-98 -14 -11 -13 -13 6 -13 18 0 22 -6 22 -35 0 -34 -13 -47 -23 -22 -4 7 -6 6
-6 -4 -1 -10 9 -19 24 -23 30 -8 33 -26 5 -33 -13 -3 -20 -13 -19 -27 1 -17 2
-17 6 -3 7 25 23 21 23 -7 0 -13 3 -33 6 -43 4 -13 3 -14 -4 -5 -7 11 -11 10
-16 -4 -4 -9 -2 -22 4 -28 7 -7 10 -6 10 2 0 7 10 11 23 11 16 -1 17 -3 5 -6
-13 -3 -15 -9 -8 -28 5 -12 6 -26 2 -29 -3 -4 3 -9 15 -12 22 -6 40 -47 23
-52 -6 -2 -17 -10 -25 -19 -8 -8 -15 -11 -16 -6 0 4 -4 -1 -9 -12 -8 -19 -9
-18 -9 4 -1 20 -3 21 -16 11 -8 -7 -15 -17 -15 -23 0 -6 -10 -26 -22 -44 -17
-24 -28 -31 -43 -27 -15 4 -17 3 -6 -4 12 -9 12 -12 -1 -25 -8 -9 -23 -15 -34
-14 -16 2 -19 -4 -18 -35 1 -21 -3 -35 -8 -32 -4 3 -8 -1 -8 -9 0 -21 -32 -46
-37 -29 -7 20 -33 14 -33 -9 0 -11 -5 -17 -10 -14 -6 3 -13 -1 -16 -9 -3 -9
-12 -16 -19 -16 -7 0 -16 -7 -19 -16 -9 -23 -7 -36 4 -29 6 4 10 -7 10 -25 0
-17 -4 -29 -9 -26 -5 4 -7 -2 -5 -11 2 -10 0 -24 -5 -32 -7 -12 -14 -9 -34 14
l-24 28 -7 -29 -8 -29 -18 24 -18 24 -6 -31 c-4 -17 -14 -36 -22 -42 -8 -8
-12 -21 -8 -36 4 -17 1 -26 -11 -31 -17 -6 -17 -7 1 -20 16 -11 16 -15 5 -22
-12 -8 -12 -12 1 -25 14 -14 15 -12 14 12 -1 15 -5 33 -10 40 -7 11 -4 11 13
0 24 -15 27 -24 9 -31 -10 -3 -10 -7 1 -20 11 -14 11 -17 0 -18 -8 -1 -18 0
-24 1 -5 1 -23 4 -38 5 -16 1 -39 13 -52 25 -21 20 -27 21 -40 10 -9 -8 -28
-14 -41 -15 -14 0 -28 -5 -32 -11 -4 -6 -14 -13 -23 -16 -11 -5 -16 -16 -14
-37 2 -22 -2 -30 -14 -29 -9 0 -49 -4 -88 -8 -63 -6 -73 -10 -73 -26 0 -11 -5
-16 -10 -13 -6 4 -8 11 -5 16 4 5 0 9 -7 9 -7 0 -19 -9 -26 -21 -11 -18 -11
-23 4 -34 17 -12 16 -13 -5 -20 -13 -4 -20 -12 -17 -21 6 -16 -12 -30 -36 -26
-9 2 -19 -2 -23 -8 -3 -5 2 -10 12 -10 14 -1 12 -5 -10 -22 -28 -20 -28 -21
-8 -35 12 -8 21 -21 21 -30 0 -9 6 -13 14 -10 11 4 13 1 9 -10 -4 -10 -2 -14
5 -9 6 3 13 2 17 -4 4 -6 11 -7 17 -4 7 4 8 2 4 -5 -4 -6 -12 -8 -18 -5 -6 4
-14 0 -19 -7 -12 -18 -11 -32 0 -24 5 3 12 1 16 -5 5 -9 -7 -14 -27 -12 -3 1
-9 -5 -12 -13 -3 -9 0 -12 8 -9 8 3 16 -4 19 -15 3 -12 10 -21 17 -21 6 0 8 5
4 12 -4 7 -3 8 5 4 9 -6 9 -11 0 -22 -9 -11 -7 -14 9 -14 12 0 26 -8 32 -17
11 -17 11 -17 6 0 -4 11 0 17 10 17 12 0 15 -6 10 -25 -4 -14 -2 -25 4 -25 5
0 10 5 10 10 0 6 7 10 15 10 8 0 15 -7 15 -15 0 -17 30 -34 48 -28 11 4 11 2
1 -16 -8 -11 -18 -22 -24 -24 -5 -2 1 -2 14 0 33 6 59 -21 53 -55 -5 -24 -3
-25 11 -14 18 15 37 8 37 -14 0 -8 3 -14 8 -15 42 -4 64 -3 68 3 3 4 -3 8 -13
9 -14 0 -13 2 5 10 26 10 42 5 42 -15 0 -7 11 -25 25 -40 14 -15 23 -31 20
-36 -8 -13 -35 0 -35 17 0 10 -6 13 -15 9 -51 -21 -51 -20 -37 -4 11 13 8 16
-18 20 -25 4 -30 1 -30 -15 0 -11 3 -18 6 -14 4 3 13 -1 21 -9 9 -8 23 -12 34
-9 13 4 19 2 19 -9 0 -9 -6 -16 -12 -16 -7 0 -5 -5 5 -11 14 -8 23 -7 38 6 15
15 21 15 34 5 23 -19 19 -59 -7 -69 -13 -5 -24 -5 -26 0 -7 17 -22 9 -22 -11
0 -10 -8 -23 -17 -29 -25 -13 -11 -23 21 -15 26 6 37 24 14 24 -6 0 -9 2 -6 5
3 3 13 3 22 -1 11 -4 15 -13 11 -28 -5 -16 -4 -17 4 -7 14 21 41 -3 41 -37 0
-28 -35 -63 -56 -55 -8 3 -14 0 -14 -6 0 -6 5 -11 11 -11 6 0 9 -7 5 -15 -3
-9 0 -15 8 -15 8 0 17 -7 20 -16 3 -8 11 -12 16 -9 6 4 9 1 8 -7 -2 -7 5 -12
15 -11 12 0 16 -4 13 -13 -8 -20 11 -17 23 4 6 9 11 14 12 10 1 -5 2 -11 3
-15 1 -5 5 -13 9 -19 4 -7 -2 -14 -16 -19 -12 -3 -17 -9 -10 -11 7 -3 21 0 32
6 18 9 21 8 21 -10 0 -12 7 -20 18 -20 14 0 15 -2 2 -10 -13 -8 -12 -10 3 -10
19 0 23 15 7 25 -13 8 -13 35 0 35 6 0 14 -10 19 -22 7 -19 8 -19 14 -4 5 12
13 15 27 11 20 -6 28 9 10 20 -5 3 -6 13 -3 22 6 14 8 14 20 -2 7 -10 15 -16
19 -13 6 7 -16 50 -32 60 -7 4 -12 25 -13 45 0 21 -2 46 -4 56 -1 11 8 26 21
35 22 14 23 14 29 -6 3 -12 12 -22 19 -22 16 0 19 -16 4 -25 -18 -11 -11 -23
10 -18 15 4 20 0 20 -13 1 -18 1 -18 11 -1 5 9 17 17 26 17 17 0 64 45 56 54
-3 2 0 13 7 23 11 17 11 16 7 -3 -6 -30 11 -56 33 -49 10 3 25 -1 33 -9 8 -8
16 -14 18 -13 2 1 -5 -6 -16 -15 -27 -23 -57 -27 -99 -13 -19 7 -38 10 -41 7
-11 -11 -4 -32 11 -32 9 0 12 5 8 11 -4 7 -1 10 7 7 8 -3 13 -11 12 -17 -3
-11 19 -10 50 4 11 4 23 3 29 -3 8 -8 14 -6 22 10 6 11 15 20 20 19 5 -2 12 3
17 10 10 17 20 8 22 -20 1 -20 27 -31 27 -11 0 6 -4 10 -9 10 -5 0 -12 14 -16
31 -5 20 -11 29 -21 25 -8 -3 -14 1 -14 9 0 8 5 15 10 15 6 0 10 7 10 15 0 25
-17 17 -25 -12 -4 -16 -10 -22 -12 -15 -3 6 -13 12 -22 12 -26 0 -33 11 -18
28 6 8 12 24 12 35 0 11 6 22 13 24 7 3 12 -4 12 -17 l0 -22 20 23 19 24 -4
-23 c-2 -14 4 -32 15 -44 11 -12 17 -24 15 -29 -3 -4 4 -5 15 -2 18 5 20 1 15
-42 -4 -50 7 -85 28 -85 7 0 8 3 2 8 -18 13 -16 34 2 30 13 -2 18 -13 18 -38
0 -30 -3 -35 -22 -33 -13 2 -23 -2 -23 -7 0 -6 5 -10 12 -10 6 0 19 -7 29 -15
15 -15 17 -14 23 10 6 25 26 35 26 14 0 -8 6 -7 17 2 15 12 16 12 9 -6 -5 -11
-11 -30 -13 -42 -6 -25 -28 -31 -36 -10 -2 6 -8 8 -13 4 -5 -5 -1 -14 8 -21
10 -7 15 -16 12 -19 -3 -3 -3 -11 1 -17 6 -9 9 -9 15 0 10 17 30 4 30 -19 0
-10 9 -21 20 -24 18 -5 19 -4 5 16 -22 31 -18 44 5 17 20 -23 20 -23 20 -2 0
26 8 27 40 5 l24 -17 -24 -6 -25 -6 24 -6 c18 -5 24 -2 28 13 3 10 10 19 15
19 6 0 8 -10 5 -23 -6 -22 -6 -22 14 2 19 23 20 23 33 5 13 -17 19 -17 57 -7
30 8 49 8 62 1 15 -8 18 -7 12 3 -6 9 -3 11 8 6 22 -8 23 19 1 31 -14 8 -14
10 1 22 13 11 14 10 8 -5 -5 -14 -3 -17 10 -12 17 7 47 -16 47 -36 0 -7 9 -18
20 -25 11 -7 20 -19 20 -27 0 -18 12 -19 28 -3 16 16 15 3 0 -22 -7 -10 -8
-23 -4 -27 5 -4 11 -2 13 5 4 10 9 8 19 -6 8 -11 11 -28 8 -37 -5 -12 -1 -16
17 -14 13 1 33 1 44 0 l20 -2 -20 -10 c-17 -8 -17 -9 7 -6 21 3 25 0 20 -12
-5 -14 -3 -14 11 -2 19 15 23 1 6 -16 -9 -9 -6 -12 12 -11 13 1 29 5 36 10 16
12 26 -7 18 -34 -6 -17 -4 -20 12 -16 14 4 19 0 20 -14 1 -13 -3 -18 -13 -14
-8 3 -14 1 -14 -4 0 -6 11 -10 25 -10 14 0 25 -4 25 -10 0 -5 -7 -10 -15 -10
-8 0 -15 -4 -15 -9 0 -4 12 -6 27 -3 l27 5 -17 -26 c-22 -33 -22 -47 1 -45 43
3 53 -2 47 -23 -7 -20 -5 -21 24 -16 34 7 34 9 13 -53 -4 -12 -1 -12 13 2 10
9 19 29 21 45 1 15 6 39 10 52 5 17 4 22 -4 17 -7 -4 -12 -1 -12 8 0 9 -6 16
-12 17 -7 1 -2 4 12 8 34 11 44 -2 46 -57 1 -26 -1 -41 -3 -34 -9 25 -24 11
-18 -17 4 -20 2 -30 -9 -34 -22 -9 -39 -44 -24 -53 6 -4 8 -3 5 2 -3 6 -2 16
3 24 7 11 11 11 24 1 12 -10 15 -8 18 16 2 20 8 27 20 25 22 -4 34 18 17 32
-16 13 -23 76 -8 76 6 0 3 7 -5 16 -9 8 -16 21 -16 27 0 6 8 0 18 -13 9 -14
17 -41 17 -60 0 -30 3 -35 23 -33 22 3 22 2 6 -22 -18 -28 -14 -41 11 -32 13
6 15 144 15 1305 l0 1298 -27 11 -28 11 28 1 c16 1 26 5 23 9 -6 10 -36 9 -54
-2 -16 -9 -15 -10 -36 31 -18 37 -19 43 -7 43 5 0 12 -11 15 -25 6 -25 20 -30
50 -19 28 11 17 27 -14 21 -23 -5 -30 -3 -30 9 0 8 4 13 9 10 5 -3 14 1 20 8
10 11 8 16 -8 21 -12 3 -25 4 -30 0 -5 -3 -12 -1 -16 5 -4 6 -11 8 -16 5 -5
-4 -6 2 -2 12 6 16 5 16 -11 4 -16 -13 -17 -12 -11 15 5 24 4 26 -5 12 -15
-25 -34 -23 -20 1 16 31 12 50 -9 46 -11 -2 -25 3 -32 11 -9 11 -8 14 6 14 28
0 -1 28 -33 32 -15 2 -25 7 -22 12 3 5 -11 15 -30 22 -19 7 -29 13 -22 13 6 1
12 6 12 12 0 5 -4 7 -10 4 -11 -7 -13 5 -10 44 1 15 -2 21 -9 16 -6 -3 -14 2
-18 12 -13 33 -54 72 -72 67 -12 -4 -12 -3 2 6 18 11 18 12 -1 26 -11 8 -28
11 -38 7 -11 -4 -15 -2 -11 4 3 5 -1 19 -11 29 -9 10 -16 30 -14 42 3 17 -7
33 -33 57 -25 22 -33 34 -24 37 8 3 -3 13 -26 23 -22 11 -46 25 -53 32 -7 7
-17 13 -21 13 -4 0 -13 11 -19 25 -9 20 -9 25 2 25 26 0 24 26 -5 49 -16 13
-26 27 -23 33 8 13 -16 39 -29 31 -5 -3 -7 -1 -4 4 4 6 0 24 -8 39 -8 16 -15
34 -15 40 0 6 -9 19 -19 28 -11 10 -17 24 -14 32 3 8 0 14 -6 14 -6 0 -11 5
-11 11 0 6 14 1 30 -11 17 -12 30 -28 30 -35 0 -17 50 -65 67 -65 7 0 13 -7
13 -15 0 -8 4 -15 9 -15 5 0 15 -16 21 -35 6 -19 18 -35 26 -35 8 0 20 -11 26
-25 6 -14 15 -25 19 -25 5 0 16 -14 25 -31 9 -17 34 -49 57 -70 22 -22 36 -39
31 -39 -4 0 2 -7 14 -16 12 -8 22 -22 22 -30 0 -8 4 -14 9 -14 5 0 11 -10 14
-22 4 -13 37 -55 74 -94 37 -38 80 -89 95 -111 27 -41 116 -135 142 -150 7 -4
23 -27 35 -50 12 -24 26 -43 31 -43 7 0 10 504 10 1434 l0 1434 -22 5 c-13 3
-54 8 -93 12 -38 4 -88 11 -110 17 -55 14 -333 35 -490 37 -330 3 -451 10
-535 31 -19 5 -60 11 -90 15 -126 14 -467 98 -505 125 -11 7 -80 29 -195 61
-41 12 -79 25 -85 29 -5 4 -64 24 -130 44 -298 93 -338 108 -349 138 -6 15
-16 28 -23 28 -7 0 -13 6 -13 13 0 8 -9 22 -20 32 -11 10 -20 22 -20 27 0 11
-51 81 -63 86 -4 2 -14 20 -23 40 -8 20 -30 59 -49 88 -19 29 -35 57 -35 63 0
5 -8 14 -17 20 -10 5 -18 13 -17 18 1 11 -86 117 -158 194 -32 34 -58 64 -58
68 0 15 -50 62 -59 56 -7 -4 -11 4 -11 18 0 14 -7 27 -15 31 -8 3 -15 12 -15
21 0 8 -7 15 -15 15 -9 0 -21 11 -27 25 -6 14 -17 25 -25 25 -7 0 -13 9 -13
21 0 11 -4 17 -10 14 -5 -3 -11 -1 -11 4 -4 36 -16 51 -40 51 -12 0 -23 10
-29 26 -13 33 -12 43 1 24 9 -13 10 -13 6 0 -7 26 -34 23 -39 -5z m1811 -6054
c21 -6 22 -8 7 -20 -24 -20 -19 -28 17 -24 17 2 26 0 19 -3 -7 -3 -17 -14 -22
-25 -9 -15 -7 -19 5 -19 9 0 13 5 10 10 -11 17 24 23 40 7 8 -8 24 -13 35 -10
11 3 20 1 20 -5 0 -6 -10 -12 -22 -14 -13 -2 -22 -9 -20 -16 3 -19 -31 -47
-62 -50 -34 -2 -46 -9 -45 -25 0 -9 2 -9 6 1 2 6 13 12 23 12 13 0 17 -7 16
-25 -1 -20 -6 -25 -29 -25 -16 0 -26 -4 -23 -9 3 -5 0 -13 -7 -19 -8 -7 -19
-5 -35 8 -13 11 -18 21 -12 25 5 3 10 1 10 -4 0 -6 7 -11 15 -11 9 0 12 6 9
15 -4 8 -12 15 -19 15 -18 0 -28 32 -13 42 10 6 10 8 -2 8 -12 0 -13 2 -1 9
11 7 10 11 -5 20 -14 8 -15 10 -4 11 19 0 35 -12 36 -27 2 -31 5 -32 25 -12
l20 20 -24 22 c-19 17 -23 27 -17 42 5 11 9 31 9 45 1 25 1 25 -14 -4 -9 -16
-13 -31 -10 -34 7 -8 -16 -32 -30 -32 -20 0 -29 55 -13 79 18 29 56 37 107 22z"/>
<path d="M14194 3829 c-7 -11 14 -49 26 -49 6 0 10 -4 10 -10 0 -5 -7 -7 -15
-4 -16 7 -45 -12 -45 -28 0 -5 7 -2 16 7 9 9 23 14 32 10 8 -3 21 3 28 12 12
17 13 16 14 -9 0 -30 19 -78 31 -78 4 0 5 9 2 20 -3 11 0 20 6 20 9 0 16 -28
12 -52 -2 -14 17 -8 23 7 3 8 11 15 18 15 9 0 8 -3 -2 -10 -21 -13 -6 -12 25
2 35 16 36 65 1 74 -14 3 -27 12 -30 20 -3 8 -10 14 -16 14 -14 0 -13 -27 3
-34 6 -3 3 -4 -8 -3 -11 2 -25 -4 -32 -13 -11 -13 -12 -12 -13 8 0 13 6 22 15
22 18 0 20 31 3 48 -9 9 -14 7 -24 -6 -13 -16 -13 -16 -14 1 0 9 -3 17 -7 18
-5 0 -18 2 -31 3 -13 2 -25 -1 -28 -5z"/>
<path d="M14074 2836 c-16 -13 -17 -18 -6 -35 17 -28 15 -33 -7 -26 -14 4 -20
0 -25 -17 -9 -34 -7 -50 4 -43 6 3 10 -3 10 -14 0 -12 4 -21 9 -21 6 0 9 -9 8
-20 -1 -11 -7 -20 -14 -20 -7 0 -13 -4 -13 -8 0 -5 10 -8 21 -8 12 1 24 -6 26
-14 3 -11 2 -11 -4 -3 -11 15 -37 0 -31 -18 3 -8 -1 -19 -9 -24 -19 -14 -6
-75 16 -76 10 0 11 -2 4 -6 -7 -2 -13 -12 -13 -20 0 -12 3 -13 13 -4 18 14 26
5 20 -20 -3 -10 -12 -19 -20 -19 -13 0 -15 -9 -10 -45 5 -51 14 -66 26 -46 7
11 11 9 20 -8 10 -17 9 -25 -4 -37 -25 -26 -13 -42 28 -35 12 2 8 -12 -13 -47
-13 -21 -25 -30 -33 -26 -6 4 -5 -1 4 -12 23 -26 36 -88 18 -82 -7 2 -16 15
-20 29 -6 22 -7 22 -8 3 -1 -12 9 -33 20 -48 24 -31 16 -47 -23 -52 -34 -4
-35 -5 -8 -15 21 -7 19 -8 -10 -4 -18 3 -38 11 -42 18 -4 6 -8 8 -8 2 0 -5 -9
4 -20 20 -11 17 -23 30 -27 30 -5 1 -19 7 -33 14 -22 13 -24 13 -12 -1 10 -13
10 -17 0 -21 -8 -4 -7 -6 5 -6 11 -1 17 -9 17 -26 0 -14 5 -25 12 -25 6 0 8
-3 5 -7 -4 -3 -18 4 -32 17 -14 13 -28 20 -32 17 -3 -4 -1 -7 5 -7 7 0 12 -5
12 -11 0 -8 -12 -10 -35 -6 -19 3 -35 2 -35 -4 0 -16 -24 -10 -53 15 -16 14
-27 29 -24 33 3 5 -3 9 -13 9 -15 0 -16 -4 -8 -19 8 -16 7 -17 -11 -7 -25 13
-27 7 -5 -14 9 -9 11 -16 4 -16 -6 0 -8 -5 -5 -10 3 -6 0 -17 -9 -25 -19 -19
-26 -19 -26 1 0 8 -4 12 -10 9 -5 -3 -10 0 -10 8 0 10 -11 14 -34 14 -19 -1
-32 -5 -30 -9 3 -4 -5 -8 -16 -8 -17 0 -21 -4 -15 -17 7 -20 8 -23 6 -42 0 -7
-7 -11 -16 -7 -8 3 -15 1 -15 -4 0 -6 7 -10 15 -10 22 0 18 -17 -5 -23 -12 -3
-20 -14 -20 -27 0 -16 4 -20 16 -16 9 3 18 6 20 6 3 0 2 5 -1 10 -3 6 -1 10 4
10 16 0 13 -20 -4 -26 -8 -4 -15 -11 -15 -16 0 -6 7 -7 16 -4 10 4 14 2 10 -6
-3 -7 -9 -21 -12 -31 -5 -13 -14 -17 -30 -14 -20 4 -22 2 -12 -10 15 -18 20
-45 7 -37 -5 3 -7 11 -4 17 3 7 -6 -2 -21 -19 l-27 -32 -40 40 c-30 30 -44 37
-61 32 -19 -6 -19 -5 -7 10 8 9 20 15 28 12 16 -7 17 6 1 23 -10 11 -10 14 0
18 14 5 16 23 3 23 -5 0 -17 -7 -25 -16 -9 -8 -16 -11 -16 -5 0 5 8 14 18 20
16 9 16 10 0 16 -24 9 -23 37 2 77 17 28 20 30 20 11 0 -16 8 -23 30 -28 17
-4 30 -13 30 -21 0 -8 12 -19 26 -24 33 -13 31 -13 37 11 4 17 3 19 -6 10 -21
-21 -29 -11 -22 29 4 26 3 40 -4 40 -6 0 -11 -7 -11 -15 0 -8 -5 -15 -11 -15
-6 0 -8 8 -4 19 3 11 -1 25 -9 34 -14 13 -13 15 5 20 15 4 23 0 26 -14 3 -10
9 -19 14 -19 14 0 11 20 -5 36 -8 7 -17 19 -20 26 -3 10 -8 8 -16 -5 -6 -9
-15 -15 -21 -12 -5 4 -9 -2 -9 -11 0 -13 -3 -15 -11 -7 -8 8 -7 17 5 34 9 13
16 19 16 14 0 -6 5 -3 10 5 12 18 13 30 3 29 -28 -5 -52 4 -55 19 -5 21 -28
-77 -28 -118 0 -17 -4 -30 -10 -30 -5 0 -7 -7 -4 -15 4 -8 1 -15 -5 -15 -19 0
-25 -2 -46 -12 -19 -9 -19 -8 -2 6 14 11 17 22 12 45 -4 17 -12 31 -18 31 -7
0 -6 4 3 10 13 8 12 10 -4 10 -13 0 -17 -5 -14 -18 4 -13 -2 -17 -26 -17 -33
0 -32 4 -19 -77 5 -37 18 -49 25 -27 2 7 12 7 28 1 22 -9 23 -11 7 -17 -16 -7
-16 -10 -3 -30 8 -12 12 -32 9 -44 -3 -13 -1 -21 7 -21 7 0 10 7 7 15 -4 8 -2
17 4 20 12 8 18 -9 22 -60 2 -24 8 -39 15 -38 7 2 12 -7 12 -20 0 -12 -4 -17
-8 -12 -4 6 -16 11 -27 13 -16 2 -17 1 -5 -7 13 -10 7 -15 -12 -12 -5 0 -8 -4
-8 -9 0 -6 11 -10 25 -10 30 0 31 -7 5 -39 -15 -18 -23 -21 -33 -12 -8 6 -17
8 -20 4 -4 -3 -7 -1 -7 5 0 7 -12 12 -27 12 -27 -1 -27 -1 -8 -16 17 -12 18
-16 5 -24 -17 -11 -30 -4 -30 16 0 17 -20 19 -21 2 0 -7 -5 -3 -11 9 -8 17 -8
26 2 38 15 18 85 21 74 3 -5 -8 -2 -9 10 -5 13 5 17 3 13 -7 -3 -8 1 -17 10
-20 24 -9 28 1 8 20 -9 9 -15 25 -12 34 3 13 -1 16 -18 12 -30 -5 -39 12 -18
33 13 14 14 18 3 25 -11 7 -10 11 2 24 9 8 18 12 22 9 3 -4 6 -1 6 5 0 6 -5
14 -11 17 -6 4 -8 14 -5 22 3 8 1 11 -4 8 -6 -3 -10 -17 -10 -31 0 -23 -19
-35 -21 -14 -1 6 -2 15 -3 21 -1 14 -37 40 -47 34 -4 -3 -10 4 -14 15 -7 23
-41 44 -55 35 -6 -3 -10 -15 -10 -26 0 -16 3 -18 19 -9 30 15 33 12 11 -10
-21 -21 -27 -55 -11 -64 10 -7 9 -25 -2 -43 -8 -13 -5 -15 23 -17 8 -1 15 -7
14 -14 -1 -6 -2 -23 -2 -37 -2 -21 -7 -25 -32 -25 -23 0 -30 -4 -30 -20 0 -11
-3 -19 -7 -19 -19 3 -22 -3 -13 -25 6 -17 5 -26 -3 -30 -7 -3 0 -3 14 0 18 4
26 1 26 -9 0 -9 -6 -13 -15 -10 -12 5 -12 2 -3 -15 6 -11 8 -28 5 -37 -5 -11
-2 -15 7 -13 8 2 16 -1 17 -7 6 -20 -9 -75 -19 -72 -11 2 -17 -24 -21 -93 -1
-19 6 -53 16 -75 14 -31 16 -46 8 -68 -9 -24 -8 -29 10 -36 19 -7 19 -8 4 -14
-12 -5 -16 -14 -12 -29 3 -13 3 -17 0 -10 -7 15 -24 6 -24 -14 0 -9 -7 -22
-15 -30 -13 -14 -15 -14 -15 0 0 9 -7 16 -16 16 -13 0 -14 -3 -5 -14 10 -12 8
-13 -8 -9 -11 3 -19 10 -18 16 1 6 -11 14 -28 18 -16 4 -24 7 -17 8 18 2 15
17 -13 61 -17 27 -33 40 -48 41 -26 0 -79 59 -53 59 20 0 21 24 0 44 -22 22
-31 20 -11 -2 10 -10 17 -21 17 -24 0 -14 -32 -16 -57 -3 -36 19 -52 19 -59 0
-9 -23 -24 -18 -24 9 0 14 -4 28 -10 31 -17 11 -11 24 15 31 39 10 20 23 -20
14 -36 -8 -49 -2 -40 22 3 7 -9 23 -27 35 -28 20 -34 21 -41 8 -4 -9 -6 -23
-3 -33 2 -9 8 -28 11 -41 5 -16 4 -21 -4 -17 -6 4 -11 16 -11 27 0 11 -4 18
-9 14 -15 -9 -5 -94 14 -115 17 -19 14 -50 -7 -77 -8 -9 -4 -15 13 -21 22 -8
22 -9 2 -14 -14 -4 -22 -17 -27 -42 -9 -47 -26 -37 -20 12 4 35 4 35 -7 12
l-12 -25 -6 25 c-4 17 -13 25 -26 25 -28 0 -57 34 -49 58 5 16 2 18 -14 13
-17 -6 -19 -3 -15 14 3 11 0 20 -6 20 -6 0 -11 -7 -11 -15 0 -8 -4 -15 -10
-15 -5 0 -10 -11 -10 -25 0 -14 -4 -25 -10 -25 -5 0 -10 7 -10 16 0 15 -2 15
-24 0 -23 -15 -25 -14 -28 6 -4 28 -28 36 -28 9 0 -12 -4 -21 -10 -21 -5 0
-10 5 -10 10 0 6 -4 10 -10 10 -5 0 -10 -6 -10 -14 0 -9 -9 -12 -27 -9 -22 4
-25 2 -13 -6 12 -9 11 -11 -7 -11 -18 0 -23 -6 -24 -27 0 -16 -2 -52 -4 -80
-1 -29 2 -53 7 -53 5 0 6 -5 3 -10 -4 -6 -12 -7 -18 -4 -9 5 -9 4 -1 -5 7 -7
28 -13 48 -14 36 -1 41 -9 8 -12 -27 -3 -52 -16 -52 -27 0 -7 5 -6 14 1 11 9
15 8 20 -5 4 -10 2 -22 -4 -28 -5 -5 -10 -18 -10 -29 0 -10 -4 -15 -10 -12 -5
3 -18 1 -27 -5 -17 -11 -17 -11 0 -6 11 3 17 0 17 -10 0 -8 -4 -12 -10 -9 -18
11 -32 -5 -19 -21 6 -8 9 -17 5 -21 -3 -3 1 -17 9 -30 12 -17 13 -28 5 -42
-15 -30 -12 -49 10 -56 11 -3 20 -11 20 -17 0 -5 -6 -8 -12 -6 -16 6 -41 -19
-33 -32 4 -7 13 -6 26 1 12 6 23 8 27 5 3 -3 0 -6 -6 -6 -7 0 -12 -7 -12 -15
0 -11 -5 -12 -26 -5 -18 7 -23 7 -18 -1 3 -6 0 -16 -7 -21 -11 -7 -9 -9 7 -5
17 3 20 0 17 -18 -3 -15 0 -22 11 -22 9 0 16 7 16 14 0 8 4 11 10 8 6 -4 4
-16 -6 -31 -14 -21 -15 -24 -1 -24 21 0 25 -18 14 -65 -5 -22 -9 -50 -8 -62 0
-14 -5 -23 -14 -23 -12 0 -15 -9 -12 -35 3 -19 0 -35 -4 -35 -5 0 -9 5 -9 10
0 6 -5 10 -11 10 -6 0 -8 -9 -4 -21 5 -15 3 -20 -6 -17 -20 7 -52 -24 -36 -35
7 -5 4 -6 -10 -2 -32 9 -63 -26 -64 -72 -1 -21 -3 -48 -4 -61 l-2 -22 1193 0
1194 0 0 1401 c0 1025 -3 1398 -11 1393 -6 -3 -15 -1 -19 6 -6 9 -12 9 -30 0
-12 -6 -24 -9 -27 -7 -2 3 5 8 16 12 12 3 21 11 21 16 0 12 -17 12 -25 -1 -4
-6 -11 -8 -16 -5 -5 4 -9 -7 -9 -24 0 -23 4 -29 15 -25 19 8 19 -3 1 -22 -9
-8 -22 -11 -33 -7 -16 6 -16 5 -4 -10 11 -15 11 -17 -2 -17 -40 0 -75 13 -70
26 3 9 -2 14 -16 14 -13 0 -21 6 -21 18 -1 20 -46 56 -55 42 -3 -5 -12 -7 -21
-3 -11 4 -12 8 -3 19 17 21 6 26 -17 10z"/>
<path d="M6122 1164 c-4 -78 5 -95 33 -64 21 23 39 25 84 9 46 -16 53 -37 29
-90 -11 -24 -22 -38 -25 -31 -3 6 -15 12 -28 12 -16 0 -30 10 -42 30 -17 30
-33 39 -33 19 0 -5 -4 -7 -10 -4 -5 3 -10 2 -10 -3 0 -6 10 -12 23 -16 24 -6
147 -126 147 -144 0 -20 101 -30 129 -13 20 13 4 31 -29 31 -16 0 -40 4 -54
10 -34 12 -35 52 -2 91 l24 28 -19 38 c-10 20 -19 49 -19 63 0 46 -55 84 -141
98 l-54 8 -3 -72z"/>
</g>
</svg>
